<svg width="82" height="48" viewBox="0 0 82 48" fill="none" xmlns="http://www.w3.org/2000/svg">
<g clip-path="url(#clip0)">
<path d="M28.4229 -3.05176e-05H44.3478L62.9981 31.9741H47.0731L28.4229 -3.05176e-05Z" fill="#352A26"/>
<path fill-rule="evenodd" clip-rule="evenodd" d="M25.833 29.8153L27.9248 33.0543C46.5239 32.0073 61.4302 16.7633 62.8684 6.13107L60.5143 3.18671C57.4742 17.7115 38.8098 28.9323 25.833 29.8153Z" fill="#ABA5A4"/>
<path fill-rule="evenodd" clip-rule="evenodd" d="M30.8662 9.76184L32.5985 13.2622C30.5393 15.1603 29.5259 16.4359 28.0878 18.8243C26.1591 22.0296 25.3746 24.1238 24.7865 27.8525L22.2041 23.6651C23.0538 20.9833 23.7075 19.5107 25.1134 17.0575C26.9435 13.9494 28.2512 12.2807 30.8662 9.76184C28.2512 12.2807 30.8662 9.76184 30.8662 9.76184Z" fill="#878180"/>
<path d="M0.0222524 44.8818C0.0741824 44.8521 0.120549 44.8372 0.16135 44.8372H0.289325C0.315286 44.8372 0.359797 44.8354 0.422856 44.8316C0.708467 44.8057 0.877235 44.7797 0.929165 44.7537C1.05899 44.6832 1.17026 44.5607 1.26299 44.3862C1.45587 44.0076 1.67286 43.4712 1.91396 42.777C2.02895 42.4466 2.10128 42.2461 2.13096 42.1756C2.22369 41.9529 2.31271 41.719 2.39802 41.474L2.92103 40.0096C3.00262 39.7794 3.19921 39.2523 3.51079 38.4282C3.58868 38.2203 3.68327 37.9419 3.79455 37.593L3.9559 37.5818L4.15063 37.5874C4.31013 37.903 4.45108 38.2426 4.57349 38.6064C4.64025 38.7994 4.74967 39.0871 4.90175 39.4695L5.74746 41.758L6.19813 42.9997C6.43551 43.705 6.5913 44.1384 6.66549 44.2999C6.73967 44.4614 6.80829 44.5681 6.87135 44.6201C6.8899 44.6349 6.95944 44.6572 7.08 44.6869C7.20054 44.7166 7.28492 44.7388 7.33315 44.7537C7.50377 44.802 7.62247 44.8428 7.68924 44.8762C7.70407 44.917 7.71149 44.9486 7.7115 44.9709C7.71149 44.9894 7.70592 45.0173 7.6948 45.0544C7.5761 45.0581 7.49264 45.0599 7.44443 45.0599C7.25525 45.0599 6.92142 45.0544 6.44294 45.0432L5.88655 45.0265L5.21333 45.0377C5.16881 45.0377 5.12337 45.0349 5.07701 45.0293C5.03064 45.0238 4.99077 45.021 4.95739 45.021H4.83499C4.79418 45.0172 4.75709 45.0061 4.72371 44.9876C4.72371 44.9356 4.73298 44.8855 4.75152 44.8372C4.79603 44.8149 4.83683 44.8019 4.87393 44.7982L5.45814 44.7593C5.61021 44.7518 5.7252 44.7314 5.8031 44.698C5.82535 44.6312 5.83647 44.5811 5.83648 44.5477C5.83647 44.4808 5.78825 44.3082 5.69182 44.0298C5.62505 43.8442 5.56663 43.6679 5.51656 43.5008C5.46648 43.3338 5.26896 42.7844 4.924 41.8527C4.77192 41.8267 4.63839 41.8137 4.52341 41.8137L3.33275 41.8248L2.98223 41.8193C2.85611 41.8193 2.71701 41.8285 2.56493 41.8471C2.51671 41.9585 2.48519 42.0383 2.47035 42.0865L1.98073 43.6178C1.77302 44.2006 1.66915 44.5217 1.66915 44.5811C1.66915 44.6145 1.68585 44.6702 1.71923 44.7481C1.79712 44.7704 1.90098 44.7908 2.03081 44.8094L2.78749 44.8762C2.82829 44.9096 2.84869 44.9393 2.84869 44.9653C2.84869 44.9838 2.84312 45.0117 2.832 45.0488C2.66508 45.0525 2.53711 45.0544 2.4481 45.0544C2.15135 45.0544 1.8064 45.0451 1.41322 45.0265C1.23147 45.0191 1.10164 45.0154 1.02375 45.0154C0.945852 45.0154 0.810467 45.0191 0.617587 45.0265C0.491473 45.034 0.400595 45.0377 0.344959 45.0377C0.255939 45.0377 0.14095 45.0321 0 45.021V44.9876C0 44.9616 0.00741649 44.9263 0.0222524 44.8818ZM2.67621 41.5408C3.0731 41.5631 3.52562 41.5743 4.03379 41.5743C4.3231 41.5743 4.57719 41.565 4.79604 41.5464C4.75894 41.4016 4.71629 41.2661 4.66807 41.1399C4.42697 40.494 4.29343 40.1377 4.26747 40.0708L3.76116 38.7846L3.70552 38.6844C3.68327 38.7289 3.60166 38.9201 3.46072 39.2579C3.22332 39.837 3.0527 40.288 2.94884 40.611C2.90062 40.7557 2.85055 40.8996 2.79862 41.0425C2.74669 41.1854 2.71423 41.2856 2.70125 41.3432C2.68827 41.4007 2.66879 41.4592 2.64283 41.5186L2.67621 41.5408Z" fill="#352A26"/>
<path d="M9.30832 45.4274C9.26381 45.4052 9.12101 45.3439 8.87991 45.2437C8.59801 45.0618 8.41997 44.9263 8.34578 44.8372C8.27159 44.7481 8.23451 44.6498 8.23451 44.5421C8.23451 44.4456 8.26232 44.3676 8.31796 44.3082C8.39956 44.2229 8.56092 44.1412 8.80202 44.0632C9.04311 43.9853 9.24156 43.9092 9.39735 43.8349C9.34913 43.8015 9.27309 43.7533 9.16923 43.6902C8.61656 43.3487 8.34022 42.8754 8.34022 42.2703C8.34022 41.7729 8.51548 41.3525 8.86601 41.0091C9.21652 40.6657 9.66627 40.494 10.2152 40.494C10.4638 40.494 10.6919 40.5293 10.8996 40.5998C11.0183 40.6369 11.1945 40.7297 11.4282 40.8782C11.5765 40.971 11.6637 41.023 11.6897 41.0341C11.749 41.0527 11.8158 41.062 11.89 41.062C11.953 41.062 12.106 41.0462 12.349 41.0147C12.5919 40.9831 12.7357 40.9673 12.7802 40.9673C12.8655 40.9673 12.936 40.984 12.9916 41.0174C13.0361 41.0917 13.0584 41.216 13.0584 41.3905C13.0584 41.4499 13.0426 41.4944 13.0111 41.5241C12.9795 41.5538 12.9341 41.5687 12.8748 41.5687C12.7709 41.5687 12.5993 41.5362 12.3601 41.4712C12.1209 41.4063 11.9753 41.3738 11.9233 41.3738C11.9048 41.3738 11.8695 41.3775 11.8176 41.3849C11.9771 41.7042 12.0569 41.9956 12.0569 42.2591C12.0569 42.5227 11.9734 42.7955 11.8065 43.0777C11.6396 43.3598 11.4096 43.5751 11.1166 43.7236C10.8235 43.8721 10.5268 43.9463 10.2264 43.9463C10.2041 43.9463 10.141 43.9444 10.0372 43.9407C9.69594 43.9407 9.38251 44.0261 9.0969 44.1969C8.95966 44.2823 8.89104 44.3621 8.89104 44.4363C8.89104 44.5143 8.9578 44.5904 9.09134 44.6646C9.44371 44.8539 10.1114 44.9634 11.0943 44.9931C11.5209 45.008 11.8529 45.0692 12.0903 45.1769C12.3276 45.2845 12.5066 45.4432 12.6272 45.653C12.7477 45.8627 12.808 46.0789 12.808 46.3017C12.808 46.6023 12.706 46.8807 12.502 47.1369C12.298 47.393 11.9882 47.6009 11.5728 47.7605C11.1574 47.9201 10.6807 48 10.1429 48C9.54943 48 9.09134 47.9276 8.76863 47.7828C8.44593 47.638 8.21689 47.4803 8.0815 47.3095C7.94611 47.1387 7.87842 46.9698 7.87842 46.8028C7.87842 46.658 7.9526 46.4771 8.10097 46.2599C8.24934 46.0427 8.55721 45.8154 9.02457 45.5778C9.16181 45.5073 9.25639 45.4571 9.30832 45.4274ZM9.08577 42.248C9.08577 42.5821 9.13585 42.8614 9.236 43.086C9.33614 43.3106 9.47339 43.4776 9.64772 43.5872C9.82205 43.6967 9.99824 43.7514 10.1763 43.7514C10.499 43.7514 10.767 43.628 10.9803 43.3811C11.1935 43.1343 11.3002 42.7584 11.3002 42.2536C11.3002 41.745 11.1889 41.358 10.9664 41.0926C10.7438 40.8272 10.4749 40.6945 10.1596 40.6945C9.80722 40.6945 9.54015 40.8207 9.3584 41.0731C9.17665 41.3255 9.08577 41.7172 9.08577 42.248ZM8.90217 47.4042C9.23971 47.664 9.66627 47.7939 10.1819 47.7939C10.5491 47.7939 10.9154 47.7355 11.2807 47.6185C11.6461 47.5016 11.9131 47.3346 12.0819 47.1174C12.2507 46.9002 12.3351 46.6951 12.3351 46.5021C12.3351 46.3833 12.3054 46.2655 12.246 46.1485C12.1867 46.0316 12.106 45.9351 12.004 45.859C11.902 45.7829 11.7675 45.7226 11.6006 45.678C11.4819 45.6446 11.3132 45.6205 11.0943 45.6056C10.4712 45.5574 10.0891 45.5332 9.94817 45.5332C9.55128 45.5332 9.19705 45.6669 8.88547 45.9342C8.64437 46.142 8.52383 46.3907 8.52383 46.6803C8.52383 46.9476 8.64994 47.1889 8.90217 47.4042Z" fill="#352A26"/>
<path d="M17.309 42.12L15.0779 42.1367H14.6551C14.4844 42.1367 14.3101 42.1441 14.1321 42.1589C14.0987 42.2703 14.082 42.3464 14.082 42.3872L14.0875 42.4429V42.4986L14.082 42.7714C14.082 42.9979 14.1534 43.2754 14.2962 43.6039C14.439 43.9324 14.643 44.183 14.9082 44.3556C15.1734 44.5282 15.5045 44.6201 15.9014 44.6312C16.1128 44.6201 16.2815 44.5941 16.4077 44.5533C16.5338 44.5124 16.7118 44.4178 16.9418 44.2693L17.3424 43.9408L17.3758 44.1635C17.3758 44.1895 17.3739 44.2173 17.3702 44.247C17.2033 44.4586 16.9919 44.6442 16.7359 44.8038C16.48 44.9635 16.2203 45.0804 15.957 45.1546C15.8309 45.188 15.6232 45.2047 15.3338 45.2047C15.0705 45.2047 14.8108 45.1509 14.5549 45.0433C14.1766 44.8799 13.8789 44.6173 13.6619 44.2554C13.4449 43.8934 13.3364 43.4545 13.3364 42.9385C13.3364 42.7752 13.367 42.5654 13.4282 42.3093C13.4894 42.0531 13.5998 41.7803 13.7593 41.4908C13.8668 41.294 13.9985 41.1325 14.1543 41.0063C14.3769 40.8281 14.5716 40.7038 14.7385 40.6332C14.9796 40.533 15.2597 40.4829 15.5787 40.4829C15.9236 40.4829 16.2055 40.546 16.4244 40.6722C16.7211 40.8393 16.9427 41.0546 17.0892 41.3181C17.2357 41.5817 17.309 41.823 17.309 42.042V42.12ZM14.2044 41.9195H14.4659C14.6551 41.9195 15.2189 41.8898 16.1573 41.8304C16.3057 41.823 16.3965 41.8081 16.4299 41.7859C16.4967 41.7153 16.5301 41.6522 16.5301 41.5965C16.5301 41.4815 16.493 41.3506 16.4188 41.204C16.3446 41.0574 16.2306 40.9441 16.0766 40.8643C15.9227 40.7845 15.7437 40.7446 15.5397 40.7446C15.1094 40.7446 14.7645 40.9061 14.5048 41.229C14.3045 41.4741 14.2044 41.7042 14.2044 41.9195Z" fill="#352A26"/>
<path d="M17.8541 44.8818C17.9468 44.8558 18.0544 44.8335 18.1768 44.815C18.4105 44.7815 18.5505 44.7426 18.5969 44.698C18.6432 44.6535 18.6664 44.5514 18.6664 44.3918L18.6775 44.1913C18.6813 44.1171 18.6831 44.0224 18.6831 43.9073L18.672 42.1979C18.672 41.9678 18.6423 41.8193 18.583 41.7524C18.4828 41.6485 18.2974 41.5761 18.0266 41.5353V41.3348C18.2974 41.2606 18.5051 41.1641 18.6497 41.0453C18.8612 40.8782 19.0392 40.6518 19.1839 40.366L19.373 40.3715C19.3842 40.546 19.3897 40.6704 19.3897 40.7446V41.1121L19.3953 41.2123C19.4398 41.1826 19.4917 41.1455 19.5511 41.101C19.7736 40.9339 20.0017 40.7975 20.2354 40.6917C20.4691 40.5859 20.6768 40.5126 20.8586 40.4718C20.9736 40.4421 21.1034 40.4272 21.248 40.4272C21.5522 40.4272 21.8137 40.5089 22.0326 40.6722C22.2514 40.8356 22.3933 41.0277 22.4582 41.2485C22.5231 41.4694 22.5555 41.9084 22.5556 42.5654V43.4062C22.5555 43.4285 22.5528 43.5027 22.5472 43.6289C22.5416 43.7551 22.5389 43.8999 22.5389 44.0632C22.5389 44.3231 22.55 44.4883 22.5722 44.5588C22.5908 44.6071 22.639 44.6553 22.7169 44.7036C23.073 44.7518 23.2807 44.8094 23.3401 44.8762V44.9207C23.3401 44.9579 23.3289 45.0043 23.3067 45.06H23.201L22.4665 45.0544L21.7432 45.0655C21.4762 45.0729 21.2295 45.0711 21.0032 45.06L20.9699 44.943C20.9699 44.9207 20.9828 44.8911 21.0088 44.8539C21.1089 44.8094 21.2499 44.7797 21.4316 44.7648C21.5392 44.7574 21.6134 44.7463 21.6542 44.7314C21.695 44.7166 21.7451 44.6869 21.8044 44.6423C21.8489 44.5532 21.8712 44.479 21.8712 44.4196C21.8712 44.3936 21.8675 44.3417 21.8601 44.2637C21.8489 44.0929 21.8415 43.6679 21.8378 42.9886V42.699L21.8489 42.2536C21.8489 41.7747 21.7525 41.4443 21.5596 41.2624C21.3667 41.0806 21.1089 40.9896 20.7862 40.9896C20.5377 40.9896 20.2948 41.0444 20.0574 41.1539C19.82 41.2634 19.59 41.4276 19.3675 41.6467C19.36 41.8248 19.3563 41.977 19.3563 42.1032L19.373 43.3338C19.373 43.976 19.3823 44.3695 19.4009 44.5143C19.4083 44.5737 19.4212 44.6145 19.4398 44.6368C19.4695 44.6665 19.5288 44.6906 19.6178 44.7092C19.7069 44.7277 19.8098 44.7537 19.9266 44.7871C20.0435 44.8205 20.1204 44.8409 20.1575 44.8484C20.2317 44.8669 20.2818 44.904 20.3078 44.9597L20.3022 45.0711H19.718L18.5162 45.0544C18.238 45.0618 18.0618 45.0655 17.9876 45.0655H17.8485L17.8374 44.9931C17.8374 44.9671 17.843 44.93 17.8541 44.8818Z" fill="#352A26"/>
<path d="M27.8968 44.041L27.9023 44.4029C27.613 44.711 27.3274 44.9263 27.0455 45.0488C26.7636 45.1713 26.4316 45.2326 26.0496 45.2326C25.6341 45.2326 25.2595 45.124 24.9257 44.9068C24.5919 44.6897 24.335 44.3825 24.1551 43.9853C23.9752 43.5881 23.8852 43.1983 23.8853 42.816C23.8852 42.3965 23.9937 42.0002 24.2107 41.6272C24.4277 41.2541 24.7152 40.9757 25.0731 40.7919C25.4311 40.6082 25.8808 40.5163 26.4224 40.5163C26.9417 40.5163 27.3367 40.6054 27.6075 40.7836C27.7595 40.8875 27.8356 41.0212 27.8356 41.1845C27.8356 41.3033 27.7966 41.4016 27.7187 41.4796C27.6408 41.5576 27.5407 41.5965 27.4183 41.5965C27.2328 41.5965 27.0288 41.4815 26.8063 41.2513C26.669 41.1102 26.5448 41.0128 26.4335 40.959C26.3222 40.9051 26.198 40.8782 26.0607 40.8782C25.7306 40.8782 25.4561 41.0137 25.2373 41.2847C24.9331 41.6708 24.781 42.1552 24.781 42.738C24.781 43.3394 24.9368 43.8182 25.2484 44.1746C25.56 44.531 25.9235 44.7091 26.3389 44.7091C26.6282 44.7091 26.8851 44.6618 27.1095 44.5672C27.3339 44.4725 27.5963 44.2971 27.8968 44.041Z" fill="#352A26"/>
<path d="M28.982 38.2167C28.982 38.0942 29.0293 37.9884 29.1238 37.8993C29.2184 37.8102 29.3325 37.7656 29.466 37.7656C29.6033 37.7656 29.7238 37.8157 29.8277 37.916C29.9315 38.0162 29.9835 38.1239 29.9835 38.2389C29.9835 38.354 29.9315 38.4626 29.8277 38.5647C29.7238 38.6668 29.6033 38.7178 29.466 38.7178C29.3288 38.7178 29.2138 38.6714 29.1211 38.5786C29.0283 38.4858 28.982 38.3651 28.982 38.2167ZM28.5146 41.101L28.5202 40.9395C28.7613 40.869 28.8911 40.8281 28.9096 40.817C29.0432 40.7576 29.1832 40.6667 29.3297 40.5442C29.4762 40.4217 29.5995 40.2843 29.6997 40.1321C29.7442 40.1247 29.7794 40.121 29.8054 40.121L29.8722 40.1265C29.887 40.3047 29.8944 40.4347 29.8944 40.5163C29.8944 40.5349 29.8907 40.6184 29.8833 40.7669V41.062L29.8889 42.6656L29.8722 44.3639C29.8685 44.5013 29.8907 44.5969 29.9389 44.6507C29.9872 44.7045 30.13 44.7649 30.3674 44.8317C30.5157 44.8725 30.627 44.9078 30.7012 44.9375C30.7123 44.9635 30.7179 44.9857 30.7179 45.0043C30.7179 45.0266 30.7086 45.0544 30.6901 45.0878C30.5454 45.0841 30.3599 45.0748 30.1337 45.06C29.8258 45.034 29.6218 45.021 29.5217 45.021C29.4734 45.021 29.1767 45.0303 28.6314 45.0488C28.5202 45.0526 28.4126 45.0618 28.3087 45.0767C28.2902 45.0767 28.2605 45.0711 28.2197 45.06C28.2012 45.034 28.1919 45.0117 28.1919 44.9932C28.1919 44.9412 28.2271 44.9003 28.2976 44.8707C28.3124 44.8632 28.5016 44.8205 28.8651 44.7426C28.9838 44.7203 29.0617 44.6832 29.0988 44.6312C29.1619 44.5533 29.1934 44.4289 29.1934 44.2582C29.2008 43.9723 29.2045 43.1891 29.2045 41.9084C29.2045 41.6522 29.1934 41.4926 29.1711 41.4295C29.1526 41.385 29.1034 41.3339 29.0237 41.2764C28.9439 41.2188 28.7742 41.1604 28.5146 41.101Z" fill="#352A26"/>
<path d="M35.3193 44.3027C35.3415 44.3509 35.3527 44.3862 35.3527 44.4085C35.3527 44.4642 35.3081 44.5625 35.2191 44.7036C35.1041 44.8892 34.9762 45.0247 34.8352 45.1101C34.7462 45.1658 34.6238 45.1936 34.468 45.1936C34.2009 45.1936 34.0006 45.1119 33.8671 44.9486C33.7855 44.8521 33.728 44.6795 33.6946 44.4308L33.0715 44.8651C32.8526 44.9913 32.6857 45.0711 32.5707 45.1045C32.3853 45.1528 32.1627 45.1769 31.9031 45.1769C31.7139 45.1769 31.5646 45.1203 31.4552 45.0071C31.3458 44.8938 31.2911 44.7481 31.2911 44.57C31.2911 44.3138 31.4478 44.0076 31.7612 43.6512C32.0746 43.2948 32.5003 43.0034 33.0381 42.777C33.4164 42.6174 33.6483 42.5153 33.7336 42.4707C33.741 42.3482 33.7447 42.2146 33.7447 42.0698C33.7447 41.5984 33.6789 41.2792 33.5472 41.1121C33.4155 40.9451 33.2273 40.8615 32.9825 40.8615C32.7265 40.8615 32.4873 40.9618 32.2647 41.1622C32.1275 41.2884 32.0236 41.526 31.9532 41.875C31.9309 41.9715 31.8882 42.0754 31.8252 42.1868C31.6657 42.2907 31.5377 42.3427 31.4413 42.3427C31.3597 42.3427 31.2855 42.3186 31.2187 42.2703C31.1816 42.2443 31.1631 42.2146 31.1631 42.1812C31.1631 42.0847 31.266 41.8666 31.4719 41.5269C31.6777 41.1873 31.9374 40.933 32.2508 40.7641C32.5642 40.5952 32.8378 40.5107 33.0715 40.5107C33.3905 40.5107 33.6279 40.5395 33.7837 40.597C33.9394 40.6546 34.0767 40.7558 34.1954 40.9005C34.3141 41.0453 34.3864 41.2031 34.4124 41.3738C34.4272 41.4555 34.4346 41.7469 34.4346 42.248L34.4179 43.1334L34.4235 43.7793C34.4235 43.8647 34.4216 43.937 34.4179 43.9964C34.4142 44.1041 34.4124 44.1839 34.4124 44.2359C34.4124 44.3584 34.4476 44.4567 34.5181 44.531C34.5886 44.6052 34.672 44.6423 34.7685 44.6423C34.9094 44.6423 35.03 44.5718 35.1301 44.4308L35.1969 44.3417C35.2154 44.3305 35.2562 44.3175 35.3193 44.3027ZM33.6835 44.1412C33.7095 43.6698 33.7225 43.3375 33.7225 43.1445C33.7225 43.0443 33.7169 42.9088 33.7058 42.738C33.4572 42.8271 33.1939 42.9626 32.9157 43.1445C32.6375 43.3264 32.4168 43.5361 32.2536 43.7737C32.1349 43.9445 32.0756 44.1059 32.0756 44.2581C32.0756 44.4029 32.1247 44.5236 32.223 44.6201C32.3213 44.7166 32.4446 44.7648 32.593 44.7648C32.708 44.7648 32.8471 44.724 33.0103 44.6423C33.2254 44.5347 33.4498 44.3676 33.6835 44.1412Z" fill="#352A26"/>
<path d="M38.474 38.7679L38.7021 37.9271C38.717 37.8157 38.7374 37.7443 38.7633 37.7127C38.7893 37.6812 38.819 37.6654 38.8524 37.6654C38.9191 37.6654 38.9952 37.7452 39.0805 37.9048C39.1435 38.0199 39.1955 38.0932 39.2363 38.1248C39.2771 38.1563 39.3364 38.1777 39.4143 38.1888L39.4699 38.1832L39.7092 38.2055L41.0223 38.2222L42.5746 38.2166H43.0308L43.8932 38.1999C43.9303 38.1999 43.9767 38.2037 44.0323 38.2111C44.2845 38.2333 44.4403 38.2445 44.4997 38.2445C44.5553 38.2445 44.5998 38.2259 44.6332 38.1888C44.6443 38.174 44.7055 38.0477 44.8168 37.8102C44.865 37.7025 44.9244 37.6487 44.9949 37.6487C45.0245 37.6487 45.0616 37.6561 45.1061 37.671C45.1247 37.7452 45.1339 37.812 45.134 37.8714L45.1284 38.0941L45.134 38.5674C45.1339 38.6825 45.1247 39.0537 45.1061 39.6811C45.1061 39.7219 45.0987 39.759 45.0839 39.7924C45.0431 39.8184 45.0078 39.8314 44.9782 39.8314C44.9485 39.8314 44.9225 39.8175 44.9003 39.7897C44.878 39.7618 44.8502 39.6755 44.8168 39.5307C44.7426 39.1966 44.6499 38.9572 44.5386 38.8124C44.4644 38.7196 44.3578 38.6528 44.2187 38.612C44.0796 38.5712 43.7467 38.5507 43.22 38.5507C42.7971 38.5507 42.4837 38.5582 42.2797 38.573C42.2723 38.7215 42.2686 38.857 42.2686 38.9795L42.3131 42.4373C42.3131 42.5747 42.3057 42.8345 42.2908 43.2169L42.2964 43.9575L42.2908 44.3695C42.2908 44.4994 42.3131 44.5922 42.3576 44.6479C42.4021 44.7036 42.5226 44.7574 42.7192 44.8094C43.0605 44.8948 43.2886 44.9467 43.4036 44.9653C43.4741 44.9727 43.5316 44.9876 43.5761 45.0098V45.1769L42.786 45.1546C42.352 45.1509 42.0256 45.1416 41.8068 45.1268L40.9944 45.1658L40.3991 45.1992C40.2322 45.1992 40.1302 45.1954 40.0931 45.188L40.0152 45.1546C40.0226 45.0692 40.0393 45.0145 40.0653 44.9904C40.0912 44.9662 40.1599 44.9467 40.2711 44.9319C40.4269 44.9096 40.6105 44.8697 40.822 44.8122C41.0334 44.7546 41.1725 44.6962 41.2393 44.6368C41.2763 44.6034 41.3023 44.5477 41.3171 44.4697C41.3505 44.3064 41.3672 43.9853 41.3672 43.5064V42.5598L41.345 40.494L41.3227 40.0486L41.3171 38.5619C41.0835 38.5359 40.7849 38.5229 40.4214 38.5229C39.8872 38.5229 39.5627 38.5563 39.4477 38.6231C39.2659 38.7271 38.9952 39.0315 38.6354 39.5363C38.5167 39.7256 38.4128 39.8203 38.3238 39.8203L38.2737 39.8091C38.2589 39.7869 38.2515 39.7665 38.2515 39.7479C38.2515 39.7034 38.2811 39.5697 38.3405 39.347C38.4147 39.0612 38.4592 38.8681 38.474 38.7679Z" fill="#352A26"/>
<path d="M45.5125 45.0767L45.4902 45.0043C45.4902 44.9783 45.5069 44.9393 45.5403 44.8873L45.8686 44.8205L46.3304 44.737C46.3675 44.7184 46.3934 44.6925 46.4083 44.659C46.4305 44.6108 46.4416 44.4679 46.4417 44.2303C46.4416 42.9682 46.4342 42.2397 46.4194 42.0448C46.4046 41.8499 46.3712 41.7265 46.3192 41.6745C46.2673 41.6225 46.1338 41.5817 45.9186 41.552C45.7925 41.5334 45.6924 41.5093 45.6182 41.4796L45.6405 41.3126C46.0299 41.1529 46.2914 41.0156 46.425 40.9005C46.6104 40.7335 46.7681 40.5145 46.8979 40.2435L47.0871 40.249C47.1093 40.4346 47.1204 40.8467 47.1204 41.4852L47.1149 41.5798C47.1149 41.6021 47.1186 41.6374 47.126 41.6856C47.267 41.4295 47.4431 41.1938 47.6546 40.9785L47.7825 40.8504C47.8345 40.791 47.8845 40.7446 47.9328 40.7112C48.1924 40.5553 48.3853 40.4773 48.5114 40.4773C48.6746 40.4773 48.8081 40.5321 48.912 40.6416C49.0159 40.7511 49.0678 40.8857 49.0678 41.0453C49.0678 41.1715 49.0307 41.2699 48.9565 41.3404C48.8564 41.4332 48.7414 41.4796 48.6115 41.4796C48.5522 41.4796 48.4354 41.4481 48.261 41.3849C48.0867 41.3218 47.9717 41.2903 47.9161 41.2903C47.8122 41.2903 47.7399 41.307 47.6991 41.3404C47.5952 41.4221 47.4691 41.5891 47.3207 41.8415C47.2057 42.0309 47.1483 42.2053 47.1483 42.365L47.1761 43.2837L47.1872 44.3862C47.1983 44.5124 47.2132 44.5941 47.2317 44.6312C47.2466 44.6572 47.2836 44.6887 47.343 44.7259C47.7436 44.7593 47.981 44.7834 48.0552 44.7983C48.1071 44.802 48.146 44.8057 48.172 44.8094C48.3315 44.8131 48.4428 44.8354 48.5058 44.8762C48.5392 44.8948 48.5559 44.9226 48.5559 44.9597C48.5559 44.982 48.5411 45.0117 48.5114 45.0488L47.8938 45.0433L47.6601 45.0377L47.3207 45.0433H46.7532L46.4472 45.06L45.5125 45.0767Z" fill="#352A26"/>
<path d="M49.8799 38.2167C49.8799 38.0942 49.9272 37.9884 50.0218 37.8993C50.1164 37.8102 50.2304 37.7656 50.364 37.7656C50.5012 37.7656 50.6218 37.8157 50.7256 37.916C50.8295 38.0162 50.8814 38.1239 50.8814 38.2389C50.8814 38.354 50.8295 38.4626 50.7256 38.5647C50.6218 38.6668 50.5012 38.7178 50.364 38.7178C50.2267 38.7178 50.1117 38.6714 50.019 38.5786C49.9263 38.4858 49.8799 38.3651 49.8799 38.2167ZM49.4125 41.101L49.4181 40.9395C49.6592 40.869 49.789 40.8281 49.8076 40.817C49.9411 40.7576 50.0811 40.6667 50.2277 40.5442C50.3742 40.4217 50.4975 40.2843 50.5976 40.1321C50.6422 40.1247 50.6774 40.121 50.7034 40.121L50.7701 40.1265C50.785 40.3047 50.7924 40.4347 50.7924 40.5163C50.7924 40.5349 50.7887 40.6184 50.7813 40.7669V41.062L50.7868 42.6656L50.7701 44.3639C50.7664 44.5013 50.7887 44.5969 50.8369 44.6507C50.8851 44.7045 51.0279 44.7649 51.2653 44.8317C51.4137 44.8725 51.525 44.9078 51.5991 44.9375C51.6103 44.9635 51.6158 44.9857 51.6158 45.0043C51.6158 45.0266 51.6066 45.0544 51.588 45.0878C51.4433 45.0841 51.2579 45.0748 51.0316 45.06C50.7238 45.034 50.5198 45.021 50.4196 45.021C50.3714 45.021 50.0746 45.0303 49.5294 45.0488C49.4181 45.0526 49.3105 45.0618 49.2067 45.0767C49.1881 45.0767 49.1585 45.0711 49.1177 45.06C49.0991 45.034 49.0898 45.0117 49.0898 44.9932C49.0898 44.9412 49.1251 44.9003 49.1956 44.8707C49.2104 44.8632 49.3996 44.8205 49.7631 44.7426C49.8818 44.7203 49.9597 44.6832 49.9967 44.6312C50.0598 44.5533 50.0913 44.4289 50.0913 44.2582C50.0988 43.9723 50.1025 43.1891 50.1025 41.9084C50.1025 41.6522 50.0913 41.4926 50.0691 41.4295C50.0505 41.385 50.0014 41.3339 49.9216 41.2764C49.8419 41.2188 49.6722 41.1604 49.4125 41.101Z" fill="#352A26"/>
<path d="M51.8828 38.0607V38.0329C51.8828 37.9958 51.8977 37.9438 51.9273 37.877C52.3316 37.8065 52.7619 37.6988 53.2181 37.554C53.2441 37.5503 53.2849 37.5485 53.3405 37.5485C53.3591 37.6079 53.3684 37.6468 53.3684 37.6654V39.3247L53.3628 39.8537L53.3684 40.4439L53.3572 40.9228C53.3572 40.9414 53.3609 41.0045 53.3684 41.1121L53.8246 40.9395C53.8728 40.9247 54.0323 40.8764 54.3031 40.7947C54.648 40.739 54.8483 40.7112 54.904 40.7112C55.2749 40.7112 55.6087 40.7706 55.9055 40.8894C56.0872 40.9636 56.2671 41.0871 56.4452 41.2597C56.6232 41.4323 56.7549 41.6151 56.8402 41.8081C56.9886 42.1608 57.0627 42.4652 57.0627 42.7213C57.0627 43.1259 57.0368 43.4062 56.9848 43.5621C56.8587 43.9333 56.7048 44.2266 56.5231 44.4419C56.3413 44.6572 56.0872 44.8409 55.7608 44.9931C55.4344 45.1453 55.0876 45.2214 54.7204 45.2214C54.3828 45.2214 54.0638 45.1583 53.7634 45.0321C53.4629 44.9059 53.2942 44.8428 53.2571 44.8428C53.1421 44.8428 52.9956 44.995 52.8175 45.2994L52.6562 45.2938C52.6413 45.0451 52.6339 44.7389 52.6339 44.3751L52.6451 43.5454L52.6395 43.1222L52.6506 41.9084L52.6395 41.6745L52.6617 41.101V40.611L52.6673 40.4105C52.6673 40.3697 52.6655 40.2082 52.6617 39.9261V39.592C52.6729 38.9461 52.6451 38.573 52.5783 38.4728C52.4707 38.3132 52.2389 38.1758 51.8828 38.0607ZM54.5256 44.9152C55.0894 44.9152 55.5188 44.7565 55.8137 44.4391C56.1085 44.1217 56.256 43.6494 56.256 43.022C56.256 42.4466 56.0891 41.9808 55.7552 41.6244C55.4214 41.268 55.0097 41.0898 54.5201 41.0898C54.164 41.0898 53.8654 41.1474 53.6243 41.2625C53.4796 41.333 53.399 41.3979 53.3823 41.4573C53.3656 41.5167 53.3572 41.9139 53.3572 42.6489C53.3572 43.5213 53.3758 44.0317 53.4129 44.1802C53.4759 44.4103 53.5909 44.5755 53.7578 44.6758C54.0212 44.8354 54.2771 44.9152 54.5256 44.9152Z" fill="#352A26"/>
<path d="M57.686 40.6889H58.1033L58.2869 40.7L58.4316 40.6889C58.8136 40.6889 59.051 40.6926 59.1438 40.7L59.1493 40.8058C59.1493 41.3292 59.1419 41.836 59.1271 42.3259C59.1159 42.6155 59.1104 42.7807 59.1104 42.8215C59.1104 43.4749 59.1317 43.8832 59.1744 44.0465C59.217 44.2099 59.3172 44.3407 59.4748 44.4391C59.6325 44.5375 59.8225 44.5866 60.0451 44.5866C60.3159 44.5866 60.5746 44.53 60.8213 44.4168C61.0679 44.3036 61.2784 44.1653 61.4528 44.002C61.4713 43.8609 61.4806 43.705 61.4806 43.5342C61.4806 42.9811 61.4861 42.6081 61.4973 42.415C61.501 42.3 61.5028 42.1997 61.5028 42.1144C61.5028 41.513 61.4732 41.1733 61.4138 41.0954C61.3545 41.0174 61.1282 40.958 60.735 40.9172C60.6052 40.9024 60.5106 40.8894 60.4513 40.8782C60.4216 40.83 60.4068 40.7928 60.4068 40.7669L60.4234 40.7056C60.5199 40.6945 60.6145 40.6889 60.7072 40.6889L61.5919 40.7C61.9071 40.6926 62.074 40.6889 62.0926 40.6889C62.1334 40.6889 62.1723 40.6908 62.2094 40.6945L62.2206 41.1009C62.1946 41.6652 62.1798 42.3631 62.1761 43.1946L62.1649 43.6456L62.1872 44.4029C62.2206 44.4623 62.2502 44.4975 62.2762 44.5087C62.3207 44.5272 62.4116 44.5365 62.5488 44.5365H62.5989C62.6471 44.5365 62.7844 44.5477 63.0106 44.5699C63.0143 44.6182 63.0162 44.6535 63.0162 44.6757V44.737C62.5192 44.8446 62.1167 44.9523 61.8088 45.0599C61.6864 45.1008 61.5826 45.1305 61.4973 45.149C61.4787 45.0191 61.4694 44.9393 61.4694 44.9096V44.4586C61.4694 44.44 61.4676 44.3899 61.4639 44.3082C61.4157 44.3416 61.36 44.3825 61.297 44.4307C61.0039 44.6572 60.6942 44.8483 60.3678 45.0042C60.149 45.1119 59.9375 45.1657 59.7335 45.1657C59.3441 45.1657 59.0269 45.021 58.7821 44.7314C58.5336 44.4419 58.4093 43.9481 58.4093 43.2503C58.4093 43.2131 58.4112 43.1463 58.4149 43.0498C58.4297 42.8716 58.4372 42.7473 58.4372 42.6767C58.4372 42.6508 58.4353 42.5691 58.4316 42.4317C58.4279 42.3724 58.426 42.3204 58.426 42.2758C58.426 42.2424 58.4279 42.1673 58.4316 42.0503C58.4353 41.9334 58.4372 41.8508 58.4372 41.8025C58.4372 41.7394 58.4353 41.6838 58.4316 41.6355L58.4205 41.3404L58.426 41.1845C58.426 41.1251 58.3964 41.0713 58.337 41.023C58.1033 40.9599 57.9503 40.9237 57.878 40.9144C57.8057 40.9051 57.7417 40.8894 57.686 40.8671V40.6889Z" fill="#352A26"/>
<path d="M64.6796 39.5586L64.8521 39.5642L64.8743 40.0931L64.8632 40.778C64.9337 40.7818 64.9782 40.7836 64.9967 40.7836C65.0932 40.7836 65.2768 40.7762 65.5476 40.7613C65.7219 40.7502 65.8888 40.7446 66.0483 40.7446C66.1225 40.7446 66.2338 40.7465 66.3821 40.7502C66.3896 40.8244 66.3933 40.8838 66.3933 40.9284C66.3933 40.9766 66.3821 41.0527 66.3599 41.1567H66.2653L65.4029 41.1845L64.9745 41.1956L64.8743 41.2068C64.8447 41.2996 64.8298 41.4072 64.8298 41.5297L64.8465 42.365L64.8354 43.835C64.8354 44.221 64.8855 44.4772 64.9856 44.6034C65.082 44.7333 65.2267 44.7983 65.4196 44.7983C65.516 44.7983 65.6978 44.7686 65.9648 44.7092C66.0464 44.6906 66.1559 44.6294 66.2931 44.5254H66.3432C66.3766 44.5254 66.4035 44.5356 66.4239 44.556C66.4443 44.5765 66.4545 44.6034 66.4545 44.6368L66.4489 44.6758C66.2894 44.8502 66.1067 44.9774 65.9009 45.0572C65.695 45.137 65.4214 45.1769 65.0802 45.1769C64.8391 45.1769 64.6397 45.1212 64.4821 45.0099C64.3244 44.8985 64.2234 44.7667 64.1788 44.6145C64.1343 44.4623 64.1121 44.1301 64.1121 43.6178L64.1343 42.365L64.1288 41.7636V41.5409C64.1288 41.4369 64.1251 41.333 64.1176 41.2291L64.0231 41.2235L63.5668 41.2402L63.5223 41.2458C63.4815 41.2458 63.4509 41.2365 63.4305 41.2179C63.4101 41.1994 63.3999 41.1771 63.3999 41.1511C63.3999 41.1066 63.4138 41.0704 63.4416 41.0425C63.4694 41.0147 63.5538 40.9711 63.6948 40.9117C63.7912 40.8708 63.9034 40.7938 64.0314 40.6806C64.1594 40.5674 64.2679 40.4421 64.3569 40.3047C64.4014 40.2305 64.4645 40.0894 64.5461 39.8815C64.6054 39.7294 64.6499 39.6217 64.6796 39.5586Z" fill="#352A26"/>
<path d="M70.9277 44.3027C70.9499 44.3509 70.961 44.3862 70.961 44.4085C70.961 44.4642 70.9165 44.5625 70.8275 44.7036C70.7125 44.8892 70.5846 45.0247 70.4436 45.1101C70.3546 45.1658 70.2322 45.1936 70.0764 45.1936C69.8093 45.1936 69.609 45.1119 69.4755 44.9486C69.3939 44.8521 69.3364 44.6795 69.303 44.4308L68.6799 44.8651C68.461 44.9913 68.2941 45.0711 68.1791 45.1045C67.9937 45.1528 67.7711 45.1769 67.5115 45.1769C67.3223 45.1769 67.173 45.1203 67.0636 45.0071C66.9542 44.8938 66.8995 44.7481 66.8995 44.57C66.8995 44.3138 67.0562 44.0076 67.3696 43.6512C67.683 43.2948 68.1087 43.0034 68.6465 42.777C69.0248 42.6174 69.2567 42.5153 69.342 42.4707C69.3494 42.3482 69.3531 42.2146 69.3531 42.0698C69.3531 41.5984 69.2873 41.2792 69.1556 41.1121C69.0239 40.9451 68.8357 40.8615 68.5909 40.8615C68.3349 40.8615 68.0957 40.9618 67.8731 41.1622C67.7359 41.2884 67.632 41.526 67.5615 41.875C67.5393 41.9715 67.4966 42.0754 67.4336 42.1868C67.2741 42.2907 67.1461 42.3427 67.0497 42.3427C66.9681 42.3427 66.8939 42.3186 66.8271 42.2703C66.79 42.2443 66.7715 42.2146 66.7715 42.1812C66.7715 42.0847 66.8744 41.8666 67.0803 41.5269C67.2861 41.1873 67.5458 40.933 67.8592 40.7641C68.1726 40.5952 68.4462 40.5107 68.6799 40.5107C68.9989 40.5107 69.2363 40.5395 69.392 40.597C69.5478 40.6546 69.6851 40.7558 69.8038 40.9005C69.9225 41.0453 69.9948 41.2031 70.0208 41.3738C70.0356 41.4555 70.043 41.7469 70.043 42.248L70.0263 43.1334L70.0319 43.7793C70.0319 43.8647 70.03 43.937 70.0263 43.9964C70.0226 44.1041 70.0208 44.1839 70.0208 44.2359C70.0208 44.3584 70.056 44.4567 70.1265 44.531C70.1969 44.6052 70.2804 44.6423 70.3768 44.6423C70.5178 44.6423 70.6383 44.5718 70.7385 44.4308L70.8053 44.3417C70.8238 44.3305 70.8646 44.3175 70.9277 44.3027ZM69.2919 44.1412C69.3179 43.6698 69.3308 43.3375 69.3308 43.1445C69.3308 43.0443 69.3253 42.9088 69.3142 42.738C69.0656 42.8271 68.8023 42.9626 68.5241 43.1445C68.2459 43.3264 68.0252 43.5361 67.862 43.7737C67.7433 43.9445 67.684 44.1059 67.684 44.2581C67.684 44.4029 67.7331 44.5236 67.8314 44.6201C67.9297 44.7166 68.053 44.7648 68.2014 44.7648C68.3164 44.7648 68.4555 44.724 68.6187 44.6423C68.8338 44.5347 69.0582 44.3676 69.2919 44.1412Z" fill="#352A26"/>
<path d="M71.262 45.0767L71.2397 45.0043C71.2397 44.9783 71.2564 44.9393 71.2898 44.8873L71.6181 44.8205L72.0799 44.737C72.117 44.7184 72.1429 44.6925 72.1578 44.659C72.18 44.6108 72.1912 44.4679 72.1912 44.2303C72.1912 42.9682 72.1837 42.2397 72.1689 42.0448C72.1541 41.8499 72.1207 41.7265 72.0688 41.6745C72.0168 41.6225 71.8833 41.5817 71.6682 41.552C71.542 41.5334 71.4419 41.5093 71.3677 41.4796L71.39 41.3126C71.7794 41.1529 72.0409 41.0156 72.1745 40.9005C72.3599 40.7335 72.5176 40.5145 72.6474 40.2435L72.8366 40.249C72.8588 40.4346 72.87 40.8467 72.87 41.4852L72.8644 41.5798C72.8644 41.6021 72.8681 41.6374 72.8755 41.6856C73.0165 41.4295 73.1927 41.1938 73.4041 40.9785L73.5321 40.8504C73.584 40.791 73.6341 40.7446 73.6823 40.7112C73.9419 40.5553 74.1348 40.4773 74.2609 40.4773C74.4241 40.4773 74.5576 40.5321 74.6615 40.6416C74.7654 40.7511 74.8173 40.8857 74.8173 41.0453C74.8173 41.1715 74.7802 41.2699 74.706 41.3404C74.6059 41.4332 74.4909 41.4796 74.3611 41.4796C74.3017 41.4796 74.1849 41.4481 74.0105 41.3849C73.8362 41.3218 73.7212 41.2903 73.6656 41.2903C73.5617 41.2903 73.4894 41.307 73.4486 41.3404C73.3447 41.4221 73.2186 41.5891 73.0703 41.8415C72.9553 42.0309 72.8978 42.2053 72.8978 42.365L72.9256 43.2837L72.9367 44.3862C72.9478 44.5124 72.9627 44.5941 72.9812 44.6312C72.9961 44.6572 73.0332 44.6887 73.0925 44.7259C73.4931 44.7593 73.7305 44.7834 73.8047 44.7983C73.8566 44.802 73.8956 44.8057 73.9215 44.8094C74.081 44.8131 74.1923 44.8354 74.2554 44.8762C74.2887 44.8948 74.3054 44.9226 74.3054 44.9597C74.3054 44.982 74.2906 45.0117 74.2609 45.0488L73.6433 45.0433L73.4096 45.0377L73.0703 45.0433H72.5027L72.1967 45.06L71.262 45.0767Z" fill="#352A26"/>
<path d="M75.6294 38.2167C75.6294 38.0942 75.6767 37.9884 75.7713 37.8993C75.8659 37.8102 75.9799 37.7656 76.1135 37.7656C76.2507 37.7656 76.3713 37.8157 76.4751 37.916C76.579 38.0162 76.6309 38.1239 76.6309 38.2389C76.6309 38.354 76.579 38.4626 76.4751 38.5647C76.3713 38.6668 76.2507 38.7178 76.1135 38.7178C75.9762 38.7178 75.8613 38.6714 75.7685 38.5786C75.6758 38.4858 75.6294 38.3651 75.6294 38.2167ZM75.1621 41.101L75.1676 40.9395C75.4087 40.869 75.5385 40.8281 75.5571 40.817C75.6906 40.7576 75.8306 40.6667 75.9772 40.5442C76.1237 40.4217 76.247 40.2843 76.3472 40.1321C76.3917 40.1247 76.4269 40.121 76.4529 40.121L76.5196 40.1265C76.5345 40.3047 76.5419 40.4347 76.5419 40.5163C76.5419 40.5349 76.5382 40.6184 76.5308 40.7669V41.062L76.5363 42.6656L76.5196 44.3639C76.5159 44.5013 76.5382 44.5969 76.5864 44.6507C76.6346 44.7045 76.7774 44.7649 77.0148 44.8317C77.1632 44.8725 77.2745 44.9078 77.3487 44.9375C77.3598 44.9635 77.3653 44.9857 77.3653 45.0043C77.3653 45.0266 77.3561 45.0544 77.3375 45.0878C77.1929 45.0841 77.0074 45.0748 76.7811 45.06C76.4733 45.034 76.2693 45.021 76.1691 45.021C76.1209 45.021 75.8242 45.0303 75.2789 45.0488C75.1676 45.0526 75.0601 45.0618 74.9562 45.0767C74.9377 45.0767 74.908 45.0711 74.8672 45.06C74.8486 45.034 74.8394 45.0117 74.8394 44.9932C74.8394 44.9412 74.8746 44.9003 74.9451 44.8707C74.9599 44.8632 75.1491 44.8205 75.5126 44.7426C75.6313 44.7203 75.7092 44.6832 75.7463 44.6312C75.8093 44.5533 75.8408 44.4289 75.8409 44.2582C75.8483 43.9723 75.852 43.1891 75.852 41.9084C75.852 41.6522 75.8408 41.4926 75.8186 41.4295C75.8 41.385 75.7509 41.3339 75.6712 41.2764C75.5914 41.2188 75.4217 41.1604 75.1621 41.101Z" fill="#352A26"/>
<path d="M81.9667 44.3027C81.989 44.3509 82.0001 44.3862 82.0001 44.4085C82.0001 44.4642 81.9556 44.5625 81.8666 44.7036C81.7516 44.8892 81.6236 45.0247 81.4827 45.1101C81.3937 45.1658 81.2713 45.1936 81.1155 45.1936C80.8484 45.1936 80.6481 45.1119 80.5146 44.9486C80.433 44.8521 80.3755 44.6795 80.3421 44.4308L79.7189 44.8651C79.5001 44.9913 79.3332 45.0711 79.2182 45.1045C79.0327 45.1528 78.8102 45.1769 78.5505 45.1769C78.3614 45.1769 78.2121 45.1203 78.1026 45.0071C77.9932 44.8938 77.9385 44.7481 77.9385 44.57C77.9385 44.3138 78.0952 44.0076 78.4087 43.6512C78.7221 43.2948 79.1477 43.0034 79.6856 42.777C80.0639 42.6174 80.2957 42.5153 80.381 42.4707C80.3885 42.3482 80.3922 42.2146 80.3922 42.0698C80.3922 41.5984 80.3263 41.2792 80.1947 41.1121C80.063 40.9451 79.8747 40.8615 79.6299 40.8615C79.374 40.8615 79.1347 40.9618 78.9122 41.1622C78.7749 41.2884 78.6711 41.526 78.6006 41.875C78.5784 41.9715 78.5357 42.0754 78.4726 42.1868C78.3131 42.2907 78.1852 42.3427 78.0887 42.3427C78.0071 42.3427 77.933 42.3186 77.8662 42.2703C77.8291 42.2443 77.8105 42.2146 77.8105 42.1812C77.8105 42.0847 77.9135 41.8666 78.1193 41.5269C78.3252 41.1873 78.5848 40.933 78.8983 40.7641C79.2117 40.5952 79.4853 40.5107 79.7189 40.5107C80.0379 40.5107 80.2753 40.5395 80.4311 40.597C80.5869 40.6546 80.7241 40.7558 80.8428 40.9005C80.9615 41.0453 81.0339 41.2031 81.0598 41.3738C81.0747 41.4555 81.0821 41.7469 81.0821 42.248L81.0654 43.1334L81.071 43.7793C81.071 43.8647 81.0691 43.937 81.0654 43.9964C81.0617 44.1041 81.0598 44.1839 81.0598 44.2359C81.0598 44.3584 81.0951 44.4567 81.1655 44.531C81.236 44.6052 81.3195 44.6423 81.4159 44.6423C81.5569 44.6423 81.6774 44.5718 81.7776 44.4308L81.8443 44.3417C81.8629 44.3305 81.9037 44.3175 81.9667 44.3027ZM80.331 44.1412C80.3569 43.6698 80.3699 43.3375 80.3699 43.1445C80.3699 43.0443 80.3643 42.9088 80.3532 42.738C80.1047 42.8271 79.8413 42.9626 79.5632 43.1445C79.285 43.3264 79.0643 43.5361 78.9011 43.7737C78.7824 43.9445 78.723 44.1059 78.723 44.2581C78.723 44.4029 78.7722 44.5236 78.8705 44.6201C78.9688 44.7166 79.0921 44.7648 79.2405 44.7648C79.3554 44.7648 79.4945 44.724 79.6577 44.6423C79.8729 44.5347 80.0973 44.3676 80.331 44.1412Z" fill="#352A26"/>
</g>
<defs>
<clipPath id="clip0">
<rect width="82" height="48" fill="white"/>
</clipPath>
</defs>
</svg>
