<svg width="91" height="32" viewBox="0 0 91 32" fill="none" xmlns="http://www.w3.org/2000/svg">
<path d="M40.8539 29.585C33.5917 29.1125 27.9434 23.0845 27.9434 15.8069C27.9434 8.18153 34.1253 2 41.7508 2C49.3411 2 55.5082 8.12652 55.5579 15.7162" stroke="#FD6601" stroke-width="3.7536"/>
<path d="M40.8539 29.585C33.5917 29.1125 27.9434 23.0845 27.9434 15.8069C27.9434 8.18153 34.1253 2 41.7508 2C49.3411 2 55.5082 8.12652 55.5579 15.7162" stroke="#FD6601" stroke-width="3.7536"/>
<path fill-rule="evenodd" clip-rule="evenodd" d="M41.2637 8.65918C45.1318 8.65918 48.2672 11.7946 48.2672 15.6625C48.2672 19.5306 45.1318 22.6663 41.2637 22.6663C37.3952 22.6663 34.2598 19.5306 34.2598 15.6625C34.2598 11.7946 37.3952 8.65918 41.2637 8.65918Z" fill="#FD6601"/>
<path fill-rule="evenodd" clip-rule="evenodd" d="M41.2637 8.65918C45.1318 8.65918 48.2672 11.7946 48.2672 15.6625C48.2672 19.5306 45.1318 22.6663 41.2637 22.6663C37.3952 22.6663 34.2598 19.5306 34.2598 15.6625C34.2598 11.7946 37.3952 8.65918 41.2637 8.65918Z" stroke="#FD6601" stroke-width="0.5669"/>
<path fill-rule="evenodd" clip-rule="evenodd" d="M41.2637 8.65918C45.1318 8.65918 48.2672 11.7946 48.2672 15.6625C48.2672 19.5306 45.1318 22.6663 41.2637 22.6663C37.3952 22.6663 34.2598 19.5306 34.2598 15.6625C34.2598 11.7946 37.3952 8.65918 41.2637 8.65918Z" fill="#FD6601"/>
<path fill-rule="evenodd" clip-rule="evenodd" d="M41.2637 8.65918C45.1318 8.65918 48.2672 11.7946 48.2672 15.6625C48.2672 19.5306 45.1318 22.6663 41.2637 22.6663C37.3952 22.6663 34.2598 19.5306 34.2598 15.6625C34.2598 11.7946 37.3952 8.65918 41.2637 8.65918Z" stroke="#FD6601" stroke-width="0.5669"/>
<path fill-rule="evenodd" clip-rule="evenodd" d="M48.7538 10.6104H47.0527V20.7156H48.7538V10.6104Z" fill="#FD6601"/>
<path fill-rule="evenodd" clip-rule="evenodd" d="M48.7538 10.6104H47.0527V20.7156H48.7538V10.6104Z" stroke="#FD6601" stroke-width="0.5669"/>
<path fill-rule="evenodd" clip-rule="evenodd" d="M48.7538 10.6104H47.0527V20.7156H48.7538V10.6104Z" fill="#FD6601"/>
<path fill-rule="evenodd" clip-rule="evenodd" d="M48.7538 10.6104H47.0527V20.7156H48.7538V10.6104Z" stroke="#FD6601" stroke-width="0.5669"/>
<path fill-rule="evenodd" clip-rule="evenodd" d="M41.5533 13.7662C41.5533 13.9411 41.4113 14.0829 41.2361 14.0829C41.0618 14.0829 40.9195 13.9411 40.9195 13.7662C40.9195 13.5913 41.0618 13.4499 41.2361 13.4499C41.4113 13.4499 41.5533 13.5913 41.5533 13.7662ZM41.0984 12.9068C40.697 12.9688 39.8948 13.4074 40.2239 14.3521C40.3659 14.7632 40.7052 14.9588 40.7591 14.986C40.8127 15.0123 40.8532 15.0214 40.8569 15.1821C40.9286 18.1364 40.9286 18.1364 40.9286 18.1364C41.2325 18.4309 41.2325 18.4309 41.2325 18.4309C41.6251 18.1273 41.6251 18.1273 41.6251 18.1273C41.6781 17.9754 41.6781 17.9754 41.6781 17.9754C41.6251 17.9221 41.6251 17.9221 41.6251 17.9221C41.6339 17.7166 41.6339 17.7166 41.6339 17.7166C41.7229 17.6097 41.7229 17.6097 41.7229 17.6097C41.6514 17.5116 41.6514 17.5116 41.6514 17.5116C41.6514 17.3152 41.6514 17.3152 41.6514 17.3152C41.7229 17.2707 41.7229 17.2707 41.7229 17.2707C41.6339 17.155 41.6339 17.155 41.6339 17.155C41.6251 16.9314 41.6251 16.9314 41.6251 16.9314C41.7229 16.8067 41.7229 16.8067 41.7229 16.8067C41.7229 16.5391 41.7229 16.5391 41.7229 16.5391C41.6069 16.3871 41.6069 16.3871 41.6069 16.3871C41.6069 16.1283 41.6069 16.1283 41.6069 16.1283C41.7229 16.0124 41.7229 16.0124 41.7229 16.0124C41.7229 15.7357 41.7229 15.7357 41.7229 15.7357C41.7229 15.7357 41.7229 15.6283 41.794 15.6283C41.8657 15.6283 41.919 15.5569 41.8836 15.4854C41.8476 15.414 41.741 15.2357 41.741 15.2357C41.741 15.2357 41.6602 15.0483 41.8031 14.9681C41.9459 14.8876 42.4993 14.4769 42.3567 13.7543C42.2138 13.0315 41.5001 12.8441 41.0984 12.9068Z" fill="#FEFEFE"/>
<path fill-rule="evenodd" clip-rule="evenodd" d="M41.5533 13.7662C41.5533 13.9411 41.4113 14.0829 41.2361 14.0829C41.0618 14.0829 40.9195 13.9411 40.9195 13.7662C40.9195 13.5913 41.0618 13.4499 41.2361 13.4499C41.4113 13.4499 41.5533 13.5913 41.5533 13.7662ZM41.0984 12.9068C40.697 12.9688 39.8948 13.4074 40.2239 14.3521C40.3659 14.7632 40.7052 14.9588 40.7591 14.986C40.8127 15.0123 40.8532 15.0214 40.8569 15.1821C40.9286 18.1364 40.9286 18.1364 40.9286 18.1364C41.2325 18.4309 41.2325 18.4309 41.2325 18.4309C41.6251 18.1273 41.6251 18.1273 41.6251 18.1273C41.6781 17.9754 41.6781 17.9754 41.6781 17.9754C41.6251 17.9221 41.6251 17.9221 41.6251 17.9221C41.6339 17.7166 41.6339 17.7166 41.6339 17.7166C41.7229 17.6097 41.7229 17.6097 41.7229 17.6097C41.6514 17.5116 41.6514 17.5116 41.6514 17.5116C41.6514 17.3152 41.6514 17.3152 41.6514 17.3152C41.7229 17.2707 41.7229 17.2707 41.7229 17.2707C41.6339 17.155 41.6339 17.155 41.6339 17.155C41.6251 16.9314 41.6251 16.9314 41.6251 16.9314C41.7229 16.8067 41.7229 16.8067 41.7229 16.8067C41.7229 16.5391 41.7229 16.5391 41.7229 16.5391C41.6069 16.3871 41.6069 16.3871 41.6069 16.3871C41.6069 16.1283 41.6069 16.1283 41.6069 16.1283C41.7229 16.0124 41.7229 16.0124 41.7229 16.0124C41.7229 15.7357 41.7229 15.7357 41.7229 15.7357C41.7229 15.7357 41.7229 15.6283 41.794 15.6283C41.8657 15.6283 41.919 15.5569 41.8836 15.4854C41.8476 15.414 41.741 15.2357 41.741 15.2357C41.741 15.2357 41.6602 15.0483 41.8031 14.9681C41.9459 14.8876 42.4993 14.4769 42.3567 13.7543C42.2138 13.0315 41.5001 12.8441 41.0984 12.9068Z" fill="#FEFEFE"/>
<path fill-rule="evenodd" clip-rule="evenodd" d="M80.4671 15.2655H88.1033C88.0024 14.1184 87.7079 13.2521 87.2286 12.6806C86.4901 11.788 85.5317 11.3396 84.3579 11.3396C83.2938 11.3396 82.3969 11.6959 81.6718 12.4079C80.9461 13.1203 80.5462 14.0741 80.4671 15.2655ZM84.651 23.7267C84.5875 23.7281 84.5235 23.7287 84.4588 23.7287C82.4584 23.7287 80.8713 23.1133 79.702 21.8822C78.5282 20.6514 77.9434 18.9234 77.9434 16.6987C77.9434 14.395 78.537 12.6103 79.7196 11.3396C80.9064 10.0691 82.4408 9.43164 84.3313 9.43164C86.1602 9.43164 87.6549 10.056 88.8111 11.3001C89.9719 12.5443 90.5525 14.2984 90.5525 16.5539C90.5525 16.6945 90.5479 16.9011 90.5391 17.1738H80.3395C80.4229 18.6773 80.8495 19.829 81.6143 20.6247C82.3793 21.4252 83.3289 21.8252 84.4721 21.8252C84.5322 21.8252 84.5921 21.8238 84.651 21.8215V23.7267Z" fill="#2B2A29"/>
<path fill-rule="evenodd" clip-rule="evenodd" d="M80.4671 15.2655H88.1033C88.0024 14.1184 87.7079 13.2521 87.2286 12.6806C86.4901 11.788 85.5317 11.3396 84.3579 11.3396C83.2938 11.3396 82.3969 11.6959 81.6718 12.4079C80.9461 13.1203 80.5462 14.0741 80.4671 15.2655ZM84.651 23.7267C84.5875 23.7281 84.5235 23.7287 84.4588 23.7287C82.4584 23.7287 80.8713 23.1133 79.702 21.8822C78.5282 20.6514 77.9434 18.9234 77.9434 16.6987C77.9434 14.395 78.537 12.6103 79.7196 11.3396C80.9064 10.0691 82.4408 9.43164 84.3313 9.43164C86.1602 9.43164 87.6549 10.056 88.8111 11.3001C89.9719 12.5443 90.5525 14.2984 90.5525 16.5539C90.5525 16.6945 90.5479 16.9011 90.5391 17.1738H80.3395C80.4229 18.6773 80.8495 19.829 81.6143 20.6247C82.3793 21.4252 83.3289 21.8252 84.4721 21.8252C84.5322 21.8252 84.5921 21.8238 84.651 21.8215V23.7267Z" fill="#1F130F" fill-opacity="0.9"/>
<path fill-rule="evenodd" clip-rule="evenodd" d="M64.2368 23.4213L59.0312 9.74414H61.4801L64.4172 17.9349C64.7334 18.8184 65.0238 19.7371 65.2919 20.6913C65.4985 19.9704 65.7842 19.1041 66.1536 18.0888L69.196 9.74414H71.5788L66.4 23.4213H64.2368Z" fill="#2B2A29"/>
<path fill-rule="evenodd" clip-rule="evenodd" d="M64.2368 23.4213L59.0312 9.74414H61.4801L64.4172 17.9349C64.7334 18.8184 65.0238 19.7371 65.2919 20.6913C65.4985 19.9704 65.7842 19.1041 66.1536 18.0888L69.196 9.74414H71.5788L66.4 23.4213H64.2368Z" fill="#1F130F" fill-opacity="0.9"/>
<path fill-rule="evenodd" clip-rule="evenodd" d="M19.4023 23.4215V4.53906H21.7194V23.4215H19.4023Z" fill="#2B2A29"/>
<path fill-rule="evenodd" clip-rule="evenodd" d="M19.4023 23.4215V4.53906H21.7194V23.4215H19.4023Z" fill="#1F130F" fill-opacity="0.9"/>
<path fill-rule="evenodd" clip-rule="evenodd" d="M11.5619 20.0992C11.2243 21.0241 10.7044 21.79 10.0017 22.3967C8.9776 23.2847 7.7159 23.7287 6.2209 23.7287C4.3526 23.7287 2.8445 23.1175 1.7104 21.8955C0.5714 20.6732 0 18.9191 0 16.633C0 15.1556 0.2463 13.8632 0.7341 12.7555C1.2265 11.6474 1.9698 10.8166 2.9721 10.2624C3.9699 9.70854 5.0601 9.43164 6.2339 9.43164C7.7201 9.43164 8.9379 9.80974 9.879 10.5614C10.6577 11.1811 11.2067 12.0125 11.5259 13.061H9.0802C8.8764 12.6443 8.6181 12.3025 8.3049 12.0343C7.7595 11.5728 7.1002 11.3396 6.3263 11.3396C5.157 11.3396 4.2074 11.7571 3.4775 12.597C2.7479 13.4324 2.3828 14.7556 2.3828 16.5672C2.3828 18.4046 2.7346 19.7412 3.4427 20.5765C4.1459 21.4074 5.0646 21.8252 6.1988 21.8252C7.109 21.8252 7.8653 21.5437 8.4761 20.9853C8.7389 20.7455 8.9603 20.4501 9.14 20.0992H11.5619Z" fill="#2B2A29"/>
<path fill-rule="evenodd" clip-rule="evenodd" d="M11.5619 20.0992C11.2243 21.0241 10.7044 21.79 10.0017 22.3967C8.9776 23.2847 7.7159 23.7287 6.2209 23.7287C4.3526 23.7287 2.8445 23.1175 1.7104 21.8955C0.5714 20.6732 0 18.9191 0 16.633C0 15.1556 0.2463 13.8632 0.7341 12.7555C1.2265 11.6474 1.9698 10.8166 2.9721 10.2624C3.9699 9.70854 5.0601 9.43164 6.2339 9.43164C7.7201 9.43164 8.9379 9.80974 9.879 10.5614C10.6577 11.1811 11.2067 12.0125 11.5259 13.061H9.0802C8.8764 12.6443 8.6181 12.3025 8.3049 12.0343C7.7595 11.5728 7.1002 11.3396 6.3263 11.3396C5.157 11.3396 4.2074 11.7571 3.4775 12.597C2.7479 13.4324 2.3828 14.7556 2.3828 16.5672C2.3828 18.4046 2.7346 19.7412 3.4427 20.5765C4.1459 21.4074 5.0646 21.8252 6.1988 21.8252C7.109 21.8252 7.8653 21.5437 8.4761 20.9853C8.7389 20.7455 8.9603 20.4501 9.14 20.0992H11.5619Z" fill="#1F130F" fill-opacity="0.9"/>
</svg>
