<svg width="42" height="42" viewBox="0 0 42 42" fill="none" xmlns="http://www.w3.org/2000/svg">
<path fill-rule="evenodd" clip-rule="evenodd" d="M21.2397 4.54257C12.0174 4.54257 4.54102 12.0186 4.54102 21.2405C4.54102 30.0422 11.3721 37.3324 20.1549 37.9038L19.8952 41.8953C9.00842 41.187 0.541016 32.1504 0.541016 21.2405C0.541016 9.80925 9.80842 0.542572 21.2397 0.542572C32.6183 0.542572 41.8634 9.72677 41.9379 21.1046L37.938 21.1308C37.8779 11.952 30.4196 4.54257 21.2397 4.54257Z" fill="#FD6601"/>
<path fill-rule="evenodd" clip-rule="evenodd" d="M10.707 21.0461C10.707 15.596 15.125 11.178 20.5759 11.178C23.5517 11.178 26.2198 12.495 28.0291 14.5779V14.2028V13.8189H28.4129H30.7166H31.1005V14.2028V27.8877V28.2716H30.7166H28.4129H28.0291V27.8877V27.5147C26.2198 29.5978 23.5517 30.9149 20.5759 30.9149C15.125 30.9149 10.707 26.4965 10.707 21.0461Z" fill="#FD6601"/>
<path fill-rule="evenodd" clip-rule="evenodd" d="M20.5446 18.9045C20.7819 18.9045 20.9742 18.7124 20.9742 18.4756C20.9742 18.2387 20.7819 18.0472 20.5446 18.0472C20.3086 18.0472 20.1159 18.2387 20.1159 18.4756C20.1159 18.7124 20.3086 18.9045 20.5446 18.9045ZM19.1722 19.2701C18.7265 17.9907 19.8129 17.3967 20.3565 17.3128C20.9005 17.2278 21.867 17.4816 22.0605 18.4605C22.2537 19.4391 21.5042 19.9953 21.3108 20.1043C21.1173 20.2129 21.2267 20.4667 21.2267 20.4667C21.2267 20.4667 21.3711 20.7081 21.4198 20.8048C21.4678 20.9017 21.3956 20.9984 21.2985 20.9984C21.2022 20.9984 21.2022 21.1438 21.2022 21.1438V21.5185L21.0451 21.6755V22.026L21.2022 22.2318V22.5942L21.0698 22.7631L21.0817 23.0659L21.2022 23.2226L21.1054 23.2828V23.5488L21.2022 23.6817L21.0817 23.8264L21.0698 24.1047L21.1415 24.1769L21.0698 24.3826L20.5381 24.7938L20.1265 24.3949L20.0294 20.3941C20.0247 20.1897 19.976 20.1664 19.91 20.1348C19.9057 20.1328 19.9014 20.1307 19.897 20.1285C19.824 20.0917 19.3645 19.8268 19.1722 19.2701Z" fill="#FEFEFE"/>
</svg>
