<svg width="124" height="52" viewBox="0 0 124 52" fill="none" xmlns="http://www.w3.org/2000/svg">
<path d="M13.4062 14.028C13.4062 13.7248 13.6486 13.4823 13.9516 13.4823C14.2546 13.4823 14.4969 13.7248 14.4969 14.028C14.4969 14.3311 14.2546 14.5736 13.9516 14.5736C13.6562 14.5736 13.4062 14.3311 13.4062 14.028Z" fill="#352A26"/>
<path d="M21.9951 14.028C21.9951 13.7248 22.2375 13.4823 22.5405 13.4823C22.8434 13.4823 23.0858 13.7248 23.0858 14.028C23.0858 14.3311 22.8434 14.5736 22.5405 14.5736C22.2451 14.5736 21.9951 14.3311 21.9951 14.028Z" fill="#352A26"/>
<path d="M17.7007 13.4823C17.7007 13.1792 17.9506 12.9367 18.2612 12.9367C18.5717 12.9367 18.8217 13.1792 18.8217 13.4823C18.8217 13.7855 18.5717 14.028 18.2612 14.028C17.9506 14.028 17.7007 13.7855 17.7007 13.4823Z" fill="#352A26"/>
<path d="M9.96025 26.0931C9.64214 26.0249 9.38462 26.2068 9.28615 26.5024C9.14224 26.9116 9.36947 27.2602 9.76332 27.3966C10.1496 27.5255 10.5359 27.3891 10.6798 26.9798C10.7934 26.6539 10.6571 26.3508 10.339 26.2068L10.2405 26.4872C10.4071 26.5706 10.498 26.7146 10.4374 26.8889C10.3465 27.1541 10.089 27.1769 9.86936 27.0935C9.63456 27.0101 9.44521 26.8358 9.5361 26.5706C9.58912 26.4266 9.73303 26.3356 9.86936 26.3584L9.96025 26.0931Z" fill="#352A26"/>
<path d="M10.278 24.5092L10.1266 24.782L10.8915 25.2064C11.0733 25.3049 11.1263 25.4186 11.0203 25.6081C10.8991 25.8279 10.7476 25.79 10.6113 25.7142L9.84631 25.2898L9.69482 25.5626L10.4598 25.987C10.7931 26.1689 11.0582 26.0704 11.24 25.7369C11.4217 25.4035 11.3687 25.1231 11.0355 24.9336L10.278 24.5092Z" fill="#352A26"/>
<path d="M11.6412 25.0245L12.3078 24.1909L12.1033 24.0242L11.6337 24.6153L11.361 24.3955L11.7927 23.865L11.6034 23.7134L11.1792 24.2439L10.9444 24.0545L11.4064 23.4785L11.2095 23.3118L10.543 24.1378L11.6412 25.0245Z" fill="#352A26"/>
<path d="M11.8533 22.9935L12.1033 22.7661C12.2093 22.6752 12.3002 22.6676 12.3911 22.7661C12.482 22.8722 12.4668 22.9632 12.3684 23.0617L12.1184 23.289L11.8533 22.9935ZM12.4062 24.0696L12.6335 23.865L12.2699 23.4558L12.4971 23.2511C12.6107 23.145 12.7016 23.1602 12.8152 23.2511C12.8986 23.3269 12.9894 23.4255 13.0803 23.4709L13.3076 23.2663C13.2167 23.2436 13.1031 23.1223 13.0425 23.0617C12.944 22.9632 12.8077 22.8798 12.6713 22.9556C12.7471 22.804 12.7092 22.6676 12.6032 22.5463C12.4593 22.3872 12.2245 22.3644 12.0351 22.5312L11.4746 23.0389L12.4062 24.0696Z" fill="#352A26"/>
<path d="M13.0652 22.031L13.2697 21.9021C13.3909 21.8264 13.5121 21.7809 13.6106 21.9325C13.709 22.084 13.6182 22.1826 13.497 22.2583L13.2925 22.3872L13.0652 22.031ZM13.4364 23.1754L13.6939 23.0086L13.4212 22.5842L13.6939 22.4099C13.9893 22.2205 13.9817 21.9552 13.853 21.7657C13.7318 21.5763 13.497 21.4626 13.2016 21.6521L12.6714 22.0007L13.4364 23.1754Z" fill="#352A26"/>
<path d="M14.4441 21.7582C14.3456 21.5308 14.3456 21.2731 14.5956 21.1594C14.8455 21.0458 15.0424 21.2201 15.1409 21.4474C15.2394 21.6596 15.2394 21.9173 14.9818 22.031C14.7243 22.1447 14.535 21.9779 14.4441 21.7582ZM14.1563 21.887C14.3229 22.2583 14.6864 22.4554 15.0803 22.2735C15.4742 22.0992 15.5802 21.6975 15.4136 21.3262C15.2469 20.9472 14.8758 20.7502 14.4819 20.9245C14.0881 21.0988 13.9896 21.5005 14.1563 21.887Z" fill="#352A26"/>
<path d="M16.2538 21.8188L16.5416 21.7733L16.3902 20.8411H16.3977L17.1173 21.6824L17.4278 21.6293L17.2082 20.2424L16.9204 20.2879L17.0643 21.2201L16.3371 20.3788L16.0342 20.4243L16.2538 21.8188Z" fill="#352A26"/>
<path d="M18.1475 20.538L18.3368 21.0533L17.9733 21.0609L18.1475 20.538ZM17.481 21.6066L17.7915 21.599L17.8975 21.2807L18.4202 21.2731L18.5338 21.5838L18.8519 21.5763L18.299 20.1742L17.9809 20.1818L17.481 21.6066Z" fill="#352A26"/>
<path d="M20.2984 20.8715C20.3135 20.5456 20.0863 20.3258 19.7757 20.2728C19.344 20.2046 19.0411 20.485 18.9805 20.9018C18.9199 21.3034 19.1168 21.6672 19.5485 21.7354C19.8894 21.7885 20.162 21.6066 20.2453 21.2656L19.9499 21.2201C19.8969 21.402 19.7757 21.5081 19.5864 21.4853C19.3137 21.4399 19.2456 21.1898 19.2834 20.9624C19.3213 20.7199 19.4652 20.5001 19.7379 20.5456C19.8894 20.5683 20.003 20.6972 20.003 20.8412L20.2984 20.8715Z" fill="#352A26"/>
<path d="M20.2832 21.8643L20.5862 21.9401L20.9497 20.5835L20.6468 20.5001L20.2832 21.8643Z" fill="#352A26"/>
<path d="M21.2685 21.4323C21.3594 21.2049 21.5487 21.023 21.8062 21.1291C22.0638 21.2352 22.0713 21.4929 21.9804 21.7203C21.8896 21.94 21.7078 22.1219 21.4503 22.0158C21.1927 21.9097 21.1852 21.652 21.2685 21.4323ZM20.9882 21.3186C20.8367 21.6975 20.9504 22.0916 21.3518 22.2583C21.7532 22.4251 22.1168 22.2129 22.2683 21.8415C22.4273 21.455 22.3061 21.0533 21.9047 20.8942C21.4957 20.7275 21.1397 20.9321 20.9882 21.3186Z" fill="#352A26"/>
<path d="M22.1465 22.5842L22.3889 22.7434L22.8963 21.9552H22.9039L22.8812 23.0617L23.1387 23.236L23.9037 22.0537L23.6613 21.8946L23.1463 22.6827L23.169 21.5687L22.9115 21.4019L22.1465 22.5842Z" fill="#352A26"/>
<path d="M24.4262 22.9707L24.2066 23.4709L23.9415 23.2208L24.4262 22.9707ZM23.1992 23.2739L23.4264 23.4861L23.7218 23.3345L24.1081 23.6907L23.9718 23.9938L24.2066 24.2136L24.7822 22.8267L24.5474 22.607L23.1992 23.2739Z" fill="#352A26"/>
<path d="M24.2368 24.2742L24.8579 25.0473L25.0624 24.8805L24.6307 24.35L25.5244 23.6225L25.3275 23.38L24.2368 24.2742Z" fill="#352A26"/>
<path d="M26.2821 25.1988L26.3882 25.3959C26.5321 25.6687 26.4185 25.843 26.1685 25.9719C25.8959 26.1158 25.7141 26.0173 25.6308 25.8582L25.502 25.6157L26.2821 25.1988ZM25.1309 25.4717L25.4187 26.0097C25.6232 26.3887 25.9867 26.4341 26.3427 26.2371C26.7517 26.0173 26.8275 25.6687 26.6533 25.3428L26.3655 24.8047L25.1309 25.4717Z" fill="#352A26"/>
<path d="M25.752 26.7373L26.0852 27.7528L26.3276 27.6695L26.0928 26.9495L26.4261 26.8434L26.6306 27.4951L26.8654 27.4194L26.6533 26.7676L26.9411 26.6767L27.1683 27.3815L27.4107 27.2981L27.0926 26.2977L25.752 26.7373Z" fill="#352A26"/>
<path d="M15.2317 37.8703L15.4589 37.946C15.5953 37.9915 15.7089 38.0673 15.6483 38.234C15.5877 38.4008 15.4589 38.3932 15.3226 38.3477L15.0954 38.2719L15.2317 37.8703ZM14.5576 38.8706L14.853 38.9691L15.0196 38.4917L15.3226 38.5978C15.6559 38.7115 15.8528 38.5447 15.9285 38.3325C16.0043 38.1128 15.9437 37.8627 15.618 37.749L15.0196 37.5444L14.5576 38.8706Z" fill="#352A26"/>
<path d="M16.1552 38.6508C16.2007 38.4083 16.3522 38.1961 16.6248 38.2492C16.8975 38.3022 16.9581 38.5523 16.9051 38.7948C16.8596 39.0222 16.7157 39.2344 16.443 39.1813C16.1704 39.1359 16.1098 38.8858 16.1552 38.6508ZM15.8523 38.5978C15.7765 38.9994 15.9659 39.3632 16.39 39.4466C16.8142 39.5299 17.1323 39.2571 17.208 38.863C17.2838 38.4538 17.102 38.0824 16.6703 37.9991C16.2461 37.9157 15.9356 38.181 15.8523 38.5978Z" fill="#352A26"/>
<path d="M17.2686 39.5451L18.2532 39.6133L18.2759 39.3556L17.5942 39.3102L17.67 38.1582L17.367 38.1431L17.2686 39.5451Z" fill="#352A26"/>
<path d="M18.6683 38.1688L18.3579 38.1797L18.4072 39.5885L18.7175 39.5776L18.6683 38.1688Z" fill="#352A26"/>
<path d="M20.0558 38.4841C19.9725 38.1658 19.6922 38.0218 19.3893 38.0673C18.9576 38.1279 18.7531 38.4841 18.8061 38.9009C18.8591 39.3026 19.1621 39.5906 19.5938 39.53C19.9346 39.4845 20.1391 39.2268 20.124 38.8706L19.8286 38.9085C19.8286 39.098 19.7453 39.242 19.5559 39.2647C19.2832 39.3026 19.1469 39.0828 19.109 38.8479C19.0712 38.6054 19.1469 38.3553 19.4196 38.3174C19.5711 38.2947 19.7225 38.3856 19.7604 38.522L20.0558 38.4841Z" fill="#352A26"/>
<path d="M20.3823 39.3481L20.6777 39.2723L20.3369 37.9081L20.0415 37.9839L20.3823 39.3481Z" fill="#352A26"/>
<path d="M21.0862 38.0445L21.427 38.4765L21.0862 38.5978V38.0445ZM20.7832 39.2723L21.0786 39.1738V38.8403L21.5785 38.666L21.783 38.9312L22.086 38.8251L21.1316 37.6656L20.8286 37.7717L20.7832 39.2723Z" fill="#352A26"/>
<path d="M18.246 48.6243L19.8366 47.9725L19.2231 41.0911C18.8974 41.1215 18.5717 41.1366 18.2385 41.1366C17.9128 41.1366 17.5871 41.1215 17.2614 41.0911L16.663 47.9725L18.246 48.6243ZM20.2077 40.9623L21.1394 46.2976L22.4724 45.7217L21.1394 40.7577C20.8288 40.8335 20.5183 40.9017 20.2077 40.9623ZM22.0937 40.4545L24.0024 45.7974L24.8356 45.8353L25.3961 45.2745L22.9799 40.0832C22.6845 40.2196 22.3891 40.3409 22.0937 40.4545ZM23.8964 39.5982L26.4261 44.0923L27.7819 43.5542L24.6992 39.0828C24.4417 39.2647 24.169 39.439 23.8964 39.5982ZM25.4491 38.4993L29.8724 43.8043L31.3797 43.1752L31.8038 41.3337L26.7973 37.1503C26.3807 37.6429 25.9338 38.09 25.4491 38.4993ZM27.3956 36.3697L31.1903 39.0373L31.5236 37.6126L27.9334 35.5284C27.7668 35.8164 27.585 36.0968 27.3956 36.3697ZM28.3879 34.6569L32.4855 36.5516L32.9399 36.0362L32.7809 35.2329L28.759 33.7551C28.653 34.0582 28.5242 34.3613 28.3879 34.6569ZM29.062 32.8077L32.4401 33.7096L32.7354 32.4515L29.274 31.8377C29.2134 32.1711 29.1453 32.4894 29.062 32.8077ZM29.3952 30.8828L34.1442 31.2996L34.5002 29.8976L34.1594 28.5031L29.4028 28.9199C29.4331 29.2382 29.4407 29.5641 29.4407 29.89C29.4407 30.231 29.4255 30.5569 29.3952 30.8828ZM29.274 27.965L32.7279 27.3511L32.4325 26.0779L29.0544 26.9874C29.1453 27.3057 29.221 27.6316 29.274 27.965ZM28.7666 26.0552L32.7885 24.5774L32.9627 23.7816L32.4855 23.2511L28.403 25.1761C28.5393 25.4641 28.6605 25.7521 28.7666 26.0552ZM27.9561 24.297L31.5311 22.228L31.2206 20.7957L27.4184 23.4557C27.6077 23.7286 27.7895 24.009 27.9561 24.297ZM26.82 22.6752L31.8341 18.4842L31.3797 16.6047L29.8724 15.9833L25.4945 21.3337C25.9717 21.7354 26.411 22.1901 26.82 22.6752ZM24.6992 20.7123L27.7441 16.2409L26.411 15.7028L23.8964 20.197C24.1766 20.3561 24.4417 20.5304 24.6992 20.7123ZM23.0102 19.7271L24.3205 16.87C23.9494 16.6881 23.5707 16.5213 23.1844 16.3773L22.1089 19.3557C22.4118 19.4618 22.7148 19.5831 23.0102 19.7271ZM24.775 15.8696L26.0096 13.1716L26.9412 14.7707L28.3879 15.3694L29.0089 14.4827L32.3113 15.8317L33.1899 19.4391L32.1901 20.0984L32.5537 21.6217L34.0837 23.2966L33.5156 25.8051L33.8261 27.1389L34.9395 26.9571L35.6288 29.9051L34.9168 32.8532L33.8261 32.6486L33.5156 33.9976L34.1064 36.4758L32.5309 38.1961L32.1901 39.7194L33.1217 40.3787L32.3643 43.9634L29.0089 45.3276L28.403 44.4257L26.9412 45.0017L25.2673 46.8812L22.7375 46.7523L21.3211 47.3586L21.5105 48.4348L18.246 49.7989L14.9816 48.4348L15.1709 47.3586L13.7545 46.7523L11.2248 46.8812L9.55086 45.0017L8.08904 44.4257L7.48311 45.3276L4.12774 43.9634L3.37033 40.3787L4.30195 39.7194L3.96869 38.1961L2.40083 36.4909L2.99162 34.0127L2.68107 32.6637L1.59039 32.8684L0.878418 29.9203L1.56767 26.9722L2.68107 27.1541L2.99162 25.8203L2.42355 23.3042L3.95354 21.6293L4.3171 20.106L3.31731 19.4467L4.19591 15.8393L7.49826 14.4903L8.11934 15.377L9.56601 14.7783L10.4976 13.1792L11.7322 15.8696C13.7091 14.9374 15.9132 14.4145 18.2385 14.4145C20.5637 14.4145 22.783 14.9374 24.775 15.8696ZM12.164 16.8321L13.4894 19.7195C13.7848 19.5831 14.0802 19.4543 14.3908 19.3406L13.3152 16.347C12.9214 16.4986 12.5427 16.6578 12.164 16.8321ZM15.33 19.045C15.6481 18.9616 15.9662 18.8859 16.2919 18.8328L15.739 15.7028C15.3224 15.7786 14.9134 15.8696 14.5195 15.9757L15.33 19.045ZM17.269 18.704C17.5871 18.6737 17.9128 18.6585 18.246 18.6585C18.5793 18.6585 18.905 18.6737 19.2307 18.704L19.5033 15.5361C19.0943 15.4982 18.6702 15.4831 18.2385 15.4831C17.8219 15.4831 17.4053 15.4982 16.9963 15.5361L17.269 18.704ZM20.2002 18.8328C20.5259 18.8934 20.844 18.9616 21.1621 19.045L21.9725 15.9757C21.5711 15.862 21.1697 15.7711 20.7531 15.6953L20.2002 18.8328ZM12.5957 20.1894L10.0811 15.7028L8.748 16.2409L11.7928 20.7123C12.0579 20.5304 12.323 20.3561 12.5957 20.1894ZM11.0051 21.3262L6.6348 15.9757L5.12754 16.5971L4.67309 18.4766L9.67962 22.6676C10.0811 22.1825 10.5279 21.7354 11.0051 21.3262ZM9.07369 23.4482L5.28659 20.7957L4.97605 22.228L8.5435 24.2894C8.70255 24.0014 8.88433 23.721 9.07369 23.4482ZM8.08147 25.1685L4.00656 23.2511L3.52938 23.7816L3.70359 24.5774L7.71791 26.0476C7.83152 25.7521 7.95271 25.4565 8.08147 25.1685ZM7.43009 26.9874L4.05958 26.0779L3.76418 27.3511L7.21044 27.965C7.27103 27.6316 7.3392 27.3057 7.43009 26.9874ZM7.08925 28.9275L2.34024 28.5107L1.9994 29.9051L2.35538 31.3072L7.09683 30.8903C7.06653 30.5645 7.05138 30.231 7.05138 29.8976C7.05138 29.5717 7.05895 29.2458 7.08925 28.9275ZM7.21801 31.8453L3.77176 32.4515L4.06715 33.7096L7.43009 32.8153C7.34677 32.497 7.27103 32.1711 7.21801 31.8453ZM7.72548 33.7551L3.71874 35.2253L3.55968 36.0286L4.01413 36.544L8.10419 34.6569C7.96028 34.3689 7.8391 34.0658 7.72548 33.7551ZM8.55864 35.536L4.97605 37.6201L5.30932 39.0449L9.09641 36.3848C8.90706 36.1044 8.72528 35.824 8.55864 35.536ZM9.70235 37.1578L4.69581 41.3337L5.11996 43.1752L6.62723 43.8043L11.043 38.5068C10.5658 38.0976 10.1114 37.6429 9.70235 37.1578ZM11.8004 39.0828L8.72528 43.5466L10.0811 44.0847L12.6033 39.5982C12.323 39.439 12.0579 39.2647 11.8004 39.0828ZM13.5273 40.0908L11.1111 45.2821L11.6716 45.8429L12.5048 45.805L14.4135 40.4621C14.1105 40.3484 13.8151 40.2196 13.5273 40.0908ZM15.3603 40.7577L14.0272 45.7141L15.3603 46.29L16.2919 40.9547C15.9813 40.9093 15.6708 40.841 15.3603 40.7577ZM8.05875 29.8976C8.05875 35.5436 12.6184 40.1211 18.246 40.1211C23.8736 40.1211 28.4333 35.5436 28.4333 29.8976C28.4333 24.2515 23.8736 19.674 18.246 19.674C12.6184 19.674 8.05875 24.2515 8.05875 29.8976Z" fill="#352A26"/>
<path d="M18.2462 22.1295C13.9743 22.1295 10.5054 25.6081 10.5054 29.8976C10.5054 34.1871 13.9668 37.6656 18.2462 37.6656C22.518 37.6656 25.987 34.1871 25.987 29.8976C25.987 25.6081 22.5256 22.1295 18.2462 22.1295ZM25.0478 29.3292H23.5936C23.5784 29.17 23.4194 27.2754 21.8742 25.8733L22.8664 24.873C24.0859 25.9946 24.8888 27.5634 25.0478 29.3292ZM18.8143 23.0768C20.0185 23.1754 21.1395 23.5922 22.0863 24.2439L21.0638 25.2671C20.5715 24.9639 19.9807 24.7138 19.2763 24.5547V25.5626C19.6626 25.699 20.0034 25.8582 20.3064 26.0249L19.1627 27.1769L19.8595 27.8741L21.132 26.6009C21.4425 26.8661 21.6849 27.1465 21.8742 27.4194L20.064 29.2382C19.8595 28.6698 19.3975 28.2227 18.8143 28.0408V23.0768ZM18.8143 32.4364V31.7543C18.9582 31.7089 19.0945 31.6482 19.2233 31.5724L20.0791 32.4288V32.4364H18.8143ZM20.064 33.4065L19.193 34.2856C19.0642 34.0431 18.9582 33.7551 18.89 33.4065H20.064ZM18.8143 29.0867C18.9127 29.1473 18.996 29.2307 19.0491 29.3292C19.1702 29.4959 19.2384 29.7005 19.2384 29.9203C19.2384 30.1325 19.1778 30.3296 19.0642 30.4887C18.996 30.5872 18.9051 30.6782 18.8067 30.7464C18.6476 30.8525 18.4507 30.9207 18.2386 30.9207C18.0265 30.9207 17.8296 30.8601 17.6706 30.7464C17.5721 30.6782 17.4812 30.5872 17.413 30.4887C17.307 30.3296 17.2388 30.1325 17.2388 29.9203C17.2388 29.7005 17.307 29.4959 17.4282 29.3292C17.4963 29.2307 17.5797 29.1549 17.6781 29.0867C17.8448 28.9806 18.0341 28.9124 18.2462 28.9124C18.4583 28.9124 18.6552 28.973 18.8143 29.0867ZM17.6857 31.7543V32.6031C17.6706 33.2625 17.5494 33.7702 17.36 34.1719V31.6179C17.4585 31.671 17.5721 31.7164 17.6857 31.7543ZM15.8906 23.4785C16.4587 23.2739 17.057 23.1375 17.6781 23.0768V27.4952C17.3676 27.139 17.3524 26.5554 17.3524 26.5554V24.1075L16.3526 24.1V25.3428H15.8906V23.4785ZM14.4515 24.2212C14.603 24.1151 14.7621 24.0166 14.9135 23.9332V25.3504H14.4515V24.2212ZM11.9596 32.5425C11.6945 31.8983 11.5203 31.2087 11.4597 30.4811H11.9596V32.5425ZM13.4517 34.7555C13.2624 34.566 13.0882 34.3689 12.9215 34.1643V30.4811H13.4517V34.7555ZM13.4517 26.5554C13.4517 26.5554 13.4214 27.677 12.6186 27.7756V29.3216H11.4597C11.5961 27.6543 12.3308 26.1537 13.4517 25.0397V26.5554ZM14.9211 35.483C14.7318 35.483 14.5576 35.4678 14.4061 35.4451V30.4811H14.9211V35.483ZM15.4059 27.7831C15.1408 27.7831 14.9211 28.0181 14.9211 28.2833V29.3292H13.5956V28.2909C13.5956 28.2909 14.5348 27.5709 14.4364 26.2977H15.4059H16.3754C16.2845 27.4648 17.0798 28.1697 17.201 28.2758C16.8222 28.5183 16.542 28.8896 16.4057 29.3292H15.8906V28.2833C15.8906 28.0181 15.671 27.7831 15.4059 27.7831ZM15.8906 30.4811H16.4057V35.1799C16.239 35.2632 16.0648 35.3314 15.8906 35.3769V30.4811ZM18.2462 36.7335C17.4963 36.7335 16.7692 36.6122 16.0875 36.3849C17.4585 35.9832 18.2538 34.8009 18.2538 34.8009C18.2538 34.8009 19.0491 35.9832 20.4124 36.3849C19.7307 36.6122 19.0036 36.7335 18.2462 36.7335ZM20.7608 35.4148C20.4427 35.3466 20.1246 35.2253 19.8368 35.0207L20.7608 34.0961V35.4148ZM20.7608 31.7392L19.9125 30.8904C19.9883 30.7615 20.0488 30.6251 20.0943 30.4811H20.7608V31.7392ZM22.3362 28.2985C22.5332 28.8442 22.5408 29.2534 22.5483 29.3216H21.3213L22.3362 28.2985ZM22.9876 30.4811L21.7152 31.7543V30.4811H22.9876ZM22.2681 35.4224C22.1166 35.4451 21.9272 35.4754 21.7152 35.483V34.081L22.7074 35.0738C22.5635 35.195 22.4196 35.3087 22.2681 35.4224ZM23.3891 34.3765L22.4196 33.4065H24.0935C23.889 33.7551 23.6542 34.081 23.3891 34.3765ZM24.5782 32.4288H22.412L24.3586 30.4811H25.0327C24.9796 31.1632 24.8206 31.815 24.5782 32.4288Z" fill="#352A26"/>
<path d="M25.752 3.20576C25.0098 3.20576 24.313 3.4028 23.7146 3.74384C22.9496 3.28154 22.0558 3.00872 21.0939 3.00114C19.9729 2.96324 18.8292 3.53164 18.8292 3.53164V2.89504H19.8593V1.84161H18.8292V0.82608H18.2612H17.6704V1.84161H16.6403V2.91019H17.6704V3.5468C17.6704 3.5468 16.5191 2.9784 15.3981 3.01629C14.4438 3.01629 13.5425 3.28154 12.7775 3.75142C12.1791 3.41038 11.4823 3.21334 10.74 3.21334C8.44503 3.21334 6.58936 5.07767 6.58936 7.38156C6.58936 9.208 7.77093 10.7616 9.41453 11.3149C9.67962 12.3607 10.634 13.1413 11.7625 13.1413C12.6941 13.1413 13.5046 12.6108 13.906 11.8378C14.3075 12.6108 15.1179 13.1413 16.0495 13.1413C17.0266 13.1413 17.8749 12.5502 18.2536 11.7089C18.6323 12.5502 19.473 13.1413 20.4577 13.1413C21.3893 13.1413 22.1998 12.6108 22.6012 11.8378C23.0026 12.6108 23.8131 13.1413 24.7447 13.1413C25.8808 13.1413 26.8276 12.3683 27.0927 11.3149C28.7287 10.7616 29.9027 9.20043 29.9027 7.37399C29.9027 5.07009 28.047 3.20576 25.752 3.20576ZM9.64933 10.2387C9.36151 10.2387 9.13428 10.0113 9.13428 9.72335C9.13428 9.43536 9.36908 9.208 9.64933 9.208C9.93715 9.208 10.1644 9.44294 10.1644 9.72335C10.1644 10.0113 9.92957 10.2387 9.64933 10.2387ZM9.63418 8.13942C9.00552 8.13942 8.46018 8.51077 8.21781 9.0337C7.90726 8.55625 7.72548 7.98785 7.72548 7.37399C7.72548 5.69154 9.08126 4.33497 10.7552 4.33497C11.1263 4.33497 11.4823 4.40318 11.808 4.52443C10.8915 5.4566 10.3234 6.73738 10.3234 8.13942H9.63418ZM11.755 12.1864C11.2475 12.1864 10.8006 11.9287 10.5355 11.5346C10.4446 11.4058 10.384 11.2618 10.3386 11.1102C10.846 10.8526 11.1945 10.3221 11.1945 9.70819C11.1945 9.59451 11.1793 9.48083 11.1566 9.36716C11.3384 9.28379 11.5429 9.23832 11.755 9.23832C11.9822 9.23832 12.2018 9.29137 12.3988 9.38989C12.376 9.49599 12.3685 9.60209 12.3685 9.70061C12.3685 10.2993 12.6941 10.8147 13.1789 11.0799C13.0198 11.7165 12.4366 12.1864 11.755 12.1864ZM13.9363 10.2387C13.6485 10.2387 13.4213 10.0038 13.4213 9.72335C13.4213 9.43536 13.6485 9.208 13.9363 9.208C14.2241 9.208 14.4514 9.44294 14.4514 9.72335C14.4514 10.0113 14.2166 10.2387 13.9363 10.2387ZM13.853 8.13942C13.853 7.2982 14.5347 6.58581 15.3754 6.58581V8.13942H13.853ZM16.0344 12.194C15.3603 12.194 14.7922 11.7393 14.618 11.1178C15.133 10.8601 15.489 10.3296 15.489 9.70819C15.489 9.58694 15.4739 9.47326 15.4512 9.35958C15.6329 9.28379 15.8299 9.23832 16.0344 9.23832C16.2767 9.23832 16.504 9.29895 16.7009 9.39747C16.6782 9.50357 16.6706 9.60967 16.663 9.71577C16.663 10.2993 16.9811 10.8147 17.4583 11.0799C17.2993 11.7165 16.7236 12.194 16.0344 12.194ZM17.678 8.13942H16.7236V5.72185C16.7236 5.72185 16.095 5.34292 15.3072 5.34292C13.7394 5.28987 12.626 6.65402 12.626 8.13942H11.558C11.558 6.00984 13.2774 4.23645 15.4057 4.23645C16.6554 4.21371 17.678 4.97915 17.678 4.97915V8.13942ZM18.2385 10.2387C17.9506 10.2387 17.7234 10.0113 17.7234 9.72335C17.7234 9.43536 17.9582 9.208 18.2385 9.208C18.5263 9.208 18.7535 9.44294 18.7535 9.72335C18.7535 10.0113 18.5187 10.2387 18.2385 10.2387ZM18.8292 4.97915C18.8292 4.97915 19.8518 4.21371 21.0939 4.23645C23.2223 4.23645 24.9416 6.00226 24.9416 8.13942H23.8736C23.8736 6.65402 22.7602 5.28987 21.1924 5.34292C20.4047 5.34292 19.776 5.72185 19.776 5.72185V8.13942H18.8292V4.97915ZM21.1166 6.59339C21.9574 6.59339 22.6466 7.2982 22.6466 8.13942H21.1242L21.1166 6.59339ZM20.4501 12.1864C19.7533 12.1864 19.1701 11.7014 19.0186 11.0496C19.4806 10.7768 19.7912 10.2766 19.7912 9.70819C19.7912 9.60967 19.7836 9.50357 19.7684 9.40505C19.9729 9.29895 20.2077 9.23832 20.4577 9.23832C20.6622 9.23832 20.8591 9.28379 21.0409 9.35958C21.0182 9.47326 21.003 9.59451 20.9955 9.70061C20.9955 10.3221 21.3514 10.8526 21.8665 11.1102C21.6923 11.7317 21.1242 12.1864 20.4501 12.1864ZM22.5709 10.2387C22.2831 10.2387 22.0558 10.0113 22.0558 9.72335C22.0558 9.43536 22.2906 9.208 22.5709 9.208C22.8587 9.208 23.0859 9.44294 23.0859 9.72335C23.0859 10.0113 22.8511 10.2387 22.5709 10.2387ZM25.9641 11.5422C25.7066 11.9363 25.2521 12.194 24.7447 12.194C24.063 12.194 23.4874 11.7241 23.3207 11.0875C23.8055 10.8147 24.1312 10.2993 24.1312 9.70819C24.1312 9.60209 24.1236 9.49599 24.1009 9.38989C24.2902 9.29137 24.5099 9.23832 24.7447 9.23832C24.9568 9.23832 25.1613 9.28379 25.343 9.36716C25.3203 9.48083 25.3052 9.59451 25.3052 9.71577C25.3052 10.3296 25.6536 10.8601 26.1611 11.1178C26.1156 11.2694 26.0474 11.4134 25.9641 11.5422ZM26.8806 10.2387C26.5928 10.2387 26.3656 10.0113 26.3656 9.72335C26.3656 9.43536 26.5928 9.208 26.8806 9.208C27.1684 9.208 27.3956 9.44294 27.3956 9.72335C27.3956 10.0113 27.1608 10.2387 26.8806 10.2387ZM28.2894 9.0337C28.0319 8.5032 27.4941 8.13942 26.8579 8.13942H26.1762C26.1762 6.73738 25.6157 5.4566 24.6992 4.52443C25.0249 4.40318 25.3809 4.33497 25.752 4.33497C27.4259 4.33497 28.7817 5.69912 28.7817 7.37399C28.7817 7.98785 28.5999 8.55625 28.2894 9.0337Z" fill="#352A26"/>
<path d="M20.3968 37.5974L20.2529 37.8475L20.0181 37.9081L20.1317 37.6656L20.3968 37.5974Z" fill="#352A26"/>
<path d="M102.72 23.2129C102.306 22.8998 102.101 23.2573 102.051 23.3248C102.041 23.2656 101.932 23.1586 101.856 23.1015C101.823 23.0761 101.73 23.0361 101.641 23.0224L101.651 23.0101C101.695 22.9502 101.636 22.8302 101.52 22.7421C101.478 22.7107 101.351 22.6565 101.246 22.6509L101.305 22.5738C101.349 22.5139 101.309 22.4077 101.215 22.3368C101.163 22.2977 100.939 22.2273 100.862 22.3322L98.137 26.0407C98.0929 26.1007 98.1333 26.2069 98.227 26.2778C98.3036 26.3356 98.3921 26.3522 98.446 26.3237L98.3867 26.4044C98.3426 26.4644 98.4013 26.5844 98.5176 26.6725C98.5997 26.7345 98.6887 26.7641 98.7495 26.7551L98.736 26.7735C98.6919 26.8334 98.7463 26.9503 98.8575 27.0344C99.0355 27.1689 99.2111 27.1666 99.2891 27.127L99.1274 27.3665C99.0772 27.4349 99.152 27.5776 99.2944 27.6853C99.4367 27.793 99.593 27.825 99.6432 27.7565L102.887 23.5317C102.938 23.4634 102.863 23.3206 102.72 23.2129Z" fill="#352A26"/>
<path d="M105.825 23.2936C105.428 22.9782 105.213 23.3299 105.162 23.3961C105.154 23.3373 105.05 23.2299 104.978 23.1724C104.946 23.1468 104.856 23.1061 104.769 23.0914L104.779 23.0794C104.824 23.0205 104.771 22.901 104.659 22.8123C104.619 22.7806 104.496 22.7254 104.393 22.7185L104.453 22.6429C104.499 22.5839 104.463 22.4783 104.373 22.4068C104.323 22.3674 104.105 22.2948 104.026 22.3979L101.214 26.039C101.168 26.0979 101.204 26.2035 101.294 26.275C101.367 26.3333 101.454 26.3509 101.508 26.3233L101.447 26.4025C101.401 26.4614 101.455 26.581 101.567 26.6696C101.645 26.7322 101.732 26.7626 101.792 26.7543L101.778 26.7724C101.733 26.8313 101.782 26.9477 101.889 27.0324C102.059 27.168 102.232 27.1679 102.311 27.1296L102.143 27.3649C102.091 27.432 102.16 27.5744 102.296 27.6829C102.433 27.7915 102.586 27.825 102.638 27.7579L105.978 23.6117C106.03 23.5445 105.961 23.4022 105.825 23.2936Z" fill="#878180"/>
<path d="M108.957 23.3684C108.566 23.044 108.345 23.391 108.293 23.456C108.286 23.397 108.184 23.2873 108.113 23.2282C108.081 23.2019 107.992 23.1591 107.905 23.1424L107.915 23.1306C107.962 23.0727 107.911 22.9519 107.801 22.8607C107.761 22.8281 107.64 22.7701 107.537 22.7609L107.598 22.6867C107.645 22.6288 107.611 22.5224 107.522 22.4489C107.474 22.4084 107.257 22.331 107.175 22.4321L104.294 26.0089C104.247 26.0668 104.281 26.1733 104.37 26.2468C104.442 26.3067 104.528 26.3261 104.583 26.2999L104.52 26.3776C104.473 26.4355 104.525 26.5563 104.635 26.6475C104.712 26.7119 104.798 26.7442 104.858 26.7373L104.844 26.7551C104.797 26.813 104.845 26.9305 104.95 27.0175C105.118 27.1569 105.291 27.1607 105.37 27.1242L105.198 27.3557C105.144 27.4216 105.21 27.5655 105.345 27.6771C105.479 27.7887 105.631 27.8257 105.684 27.7598L109.104 23.6899C109.158 23.6239 109.092 23.48 108.957 23.3684Z" fill="#352A26"/>
<path d="M84.8618 32.6839C84.8618 32.3979 84.8523 32.1118 84.4646 32.1118H79.0617C78.6355 32.1118 78.6355 32.3335 78.6355 32.5551V34.826C78.6355 35.1584 78.6833 35.3988 79.0523 35.3988H84.4458C84.8618 35.3988 84.8618 35.1675 84.8618 34.9188L84.8618 32.6839ZM86.6881 35.1217C86.6881 36.4418 85.8082 37.1898 84.4645 37.1898H79.0616C77.7556 37.1898 76.8286 36.396 76.8286 35.1217V32.3238C76.9323 31.2157 77.7933 30.3568 79.071 30.3568H84.4645C85.9307 30.3568 86.6881 31.253 86.6881 32.5274V35.1217Z" fill="#352A26"/>
<path d="M116.663 35.3439L116.662 37.2084H109.377C108.117 37.2084 107.222 36.4224 107.222 35.161V30.353H108.966L108.963 34.7544C108.963 35.1616 109.006 35.3439 109.378 35.3439H116.663Z" fill="#352A26"/>
<path d="M73.3165 35.4093V37.2081H65.8595C64.5967 37.2081 63.7002 36.4105 63.7002 35.1311V32.3215C63.801 31.2089 64.6337 30.3559 65.8688 30.3559H73.2983V32.1082H65.8594C65.4475 32.1082 65.4475 32.3311 65.4475 32.5534V34.8347C65.4475 35.1684 65.4938 35.4093 65.8506 35.4093H73.3165Z" fill="#352A26"/>
<path d="M75.9207 30.3559H74.165V37.2081H75.9207V30.3559Z" fill="#352A26"/>
<path d="M58.0397 33.6654L58.8552 32.1121L59.6545 33.6654H58.0397ZM61.4771 37.2081H63.3881L60.7213 31.9369C60.2949 31.0819 59.7795 30.3456 58.8551 30.3456C57.8865 30.3456 57.4508 31.0543 56.9976 31.9369L54.2954 37.2081H56.1797L57.1129 35.4306H60.5628L61.4771 37.2081Z" fill="#352A26"/>
<path d="M101.233 33.6768L102.049 32.1235L102.848 33.6768H101.233ZM104.67 37.2194H106.581L103.915 31.9482C103.488 31.0933 102.973 30.3569 102.048 30.3569C101.08 30.3569 100.644 31.0656 100.191 31.9482L97.4888 37.2194H99.3731L100.306 35.442H103.756L104.67 37.2194Z" fill="#352A26"/>
<path d="M44.5 32.0023C44.5 31.1274 45.3303 30.4399 46.2258 30.4399C46.7332 30.4399 47.1853 30.6448 47.6281 31.0649L52.2695 35.2995V30.4425L54.0047 30.4418V35.3864C54.0047 36.4397 53.2014 37.2077 52.2695 37.2077C51.7621 37.2077 51.4297 37.0202 50.3874 36.1363L46.2258 32.2077V37.2077H44.5V32.0023Z" fill="#352A26"/>
<path d="M87.6948 32.0046C87.6948 31.1298 88.519 30.4423 89.4078 30.4423C89.9114 30.4423 90.3602 30.6471 90.7997 31.0673L95.4068 35.3019V30.4449L97.1292 30.4442V35.3888C97.1292 36.4421 96.3318 37.21 95.4068 37.21C94.9032 37.21 94.5733 37.0225 93.5386 36.1386L89.4078 32.21V37.21H87.6948V32.0046Z" fill="#352A26"/>
<path d="M62.0671 23.2377C62.0671 22.948 62.0585 22.6589 61.7026 22.6589H56.7436C56.3525 22.6589 56.3525 22.8829 56.3525 23.1069V25.403C56.3525 25.739 56.3961 25.9818 56.7347 25.9818H61.6851C62.0672 25.9818 62.0672 25.7483 62.0672 25.4963L62.0671 23.2377ZM63.7434 25.7018C63.7434 27.0365 62.9357 27.7925 61.7026 27.7925H56.7436C55.5448 27.7925 54.6938 26.9897 54.6938 25.7018V22.8734C54.7892 21.7535 55.5796 20.8855 56.7522 20.8855H61.7026C63.0486 20.8855 63.7434 21.7908 63.7434 23.0791V25.7018Z" fill="#352A26"/>
<path d="M73.3038 25.9163L73.3027 27.7925H66.5512C65.3841 27.7925 64.5552 27.0016 64.5552 25.732V20.8929H66.1706L66.1685 25.3233C66.1685 25.7327 66.2084 25.9164 66.553 25.9164L73.3038 25.9163Z" fill="#352A26"/>
<path d="M85.7044 25.9822V27.7926H78.8337C77.6704 27.7926 76.8442 26.9901 76.8442 25.7022V22.8744C76.9369 21.7545 77.7042 20.896 78.8424 20.896H85.6878V22.6598H78.8337C78.4543 22.6598 78.4543 22.8838 78.4543 23.1076V25.4034C78.4543 25.7394 78.4966 25.9822 78.8253 25.9822H85.7044Z" fill="#352A26"/>
<path d="M75.8917 20.8957H74.1797V27.7925H75.8917V20.8957Z" fill="#352A26"/>
<path d="M92.8198 24.1796L93.5754 22.5957L94.316 24.1796H92.8198ZM96.0051 27.7925H97.7758L95.3049 22.4174C94.9097 21.545 94.4319 20.7945 93.5753 20.7945C92.6776 20.7945 92.274 21.5169 91.854 22.4174L89.3501 27.7925H91.0964L91.9608 25.9801H95.1577L96.0051 27.7925Z" fill="#352A26"/>
<path d="M46.1598 22.5155H52.1983V23.6167H46.1598V22.5155ZM52.085 20.903C52.0666 20.903 52.0487 20.9041 52.0302 20.9047C51.9626 20.901 51.8928 20.8983 51.8183 20.8983H44.502V27.7924H46.1406V25.2525H51.8183C51.889 25.2525 51.9555 25.2501 52.0201 25.2464V25.2509C52.0415 25.2518 52.0633 25.2529 52.085 25.2529C53.1607 25.2529 54.0331 24.279 54.0331 23.0779C54.0331 21.8767 53.1607 20.903 52.085 20.903Z" fill="#352A26"/>
<path d="M88.399 20.9626H86.687V27.8595H88.399V20.9626Z" fill="#352A26"/>
<path d="M86.687 20.3024V20.3025H88.399V19.1736L86.687 20.3024Z" fill="#352A26"/>
</svg>
